<?xml version="1.0" encoding="utf-8" standalone="no"?>
<!DOCTYPE svg PUBLIC "-//W3C//DTD SVG 1.1//EN"
  "http://www.w3.org/Graphics/SVG/1.1/DTD/svg11.dtd">
<svg xmlns:xlink="http://www.w3.org/1999/xlink" width="720pt" height="720pt" viewBox="0 0 720 720" xmlns="http://www.w3.org/2000/svg" version="1.1">
 <metadata>
  <rdf:RDF xmlns:dc="http://purl.org/dc/elements/1.1/" xmlns:cc="http://creativecommons.org/ns#" xmlns:rdf="http://www.w3.org/1999/02/22-rdf-syntax-ns#">
   <cc:Work>
    <dc:type rdf:resource="http://purl.org/dc/dcmitype/StillImage"/>
    <dc:date>2024-08-20T14:20:33.987679</dc:date>
    <dc:format>image/svg+xml</dc:format>
    <dc:creator>
     <cc:Agent>
      <dc:title>Matplotlib v3.7.2, https://matplotlib.org/</dc:title>
     </cc:Agent>
    </dc:creator>
   </cc:Work>
  </rdf:RDF>
 </metadata>
 <defs>
  <style type="text/css">*{stroke-linejoin: round; stroke-linecap: butt}</style>
 </defs>
 <g id="figure_1">
  <g id="patch_1">
   <path d="M 0 720 
L 720 720 
L 720 0 
L 0 0 
z
" style="fill: #ffffff"/>
  </g>
  <g id="axes_1">
   <g id="patch_2">
    <path d="M 50.6 674.728 
L 706.183597 674.728 
L 706.183597 26.88 
L 50.6 26.88 
z
" style="fill: #ffffff"/>
   </g>
   <g id="matplotlib.axis_1">
    <g id="xtick_1">
     <g id="line2d_1">
      <defs>
       <path id="m4d795bd4c0" d="M 0 0 
L 0 3.5 
" style="stroke: #000000; stroke-width: 0.8"/>
      </defs>
      <g>
       <use xlink:href="#m4d795bd4c0" x="80.399254" y="674.728" style="stroke: #000000; stroke-width: 0.8"/>
      </g>
     </g>
     <g id="text_1">
      <!-- $\mathdefault{10^{0}}$ -->
      <g transform="translate(71.599254 689.326437) scale(0.1 -0.1)">
       <defs>
        <path id="DejaVuSans-31" d="M 794 531 
L 1825 531 
L 1825 4091 
L 703 3866 
L 703 4441 
L 1819 4666 
L 2450 4666 
L 2450 531 
L 3481 531 
L 3481 0 
L 794 0 
L 794 531 
z
" transform="scale(0.015625)"/>
        <path id="DejaVuSans-30" d="M 2034 4250 
Q 1547 4250 1301 3770 
Q 1056 3291 1056 2328 
Q 1056 1369 1301 889 
Q 1547 409 2034 409 
Q 2525 409 2770 889 
Q 3016 1369 3016 2328 
Q 3016 3291 2770 3770 
Q 2525 4250 2034 4250 
z
M 2034 4750 
Q 2819 4750 3233 4129 
Q 3647 3509 3647 2328 
Q 3647 1150 3233 529 
Q 2819 -91 2034 -91 
Q 1250 -91 836 529 
Q 422 1150 422 2328 
Q 422 3509 836 4129 
Q 1250 4750 2034 4750 
z
" transform="scale(0.015625)"/>
       </defs>
       <use xlink:href="#DejaVuSans-31" transform="translate(0 0.765625)"/>
       <use xlink:href="#DejaVuSans-30" transform="translate(63.623047 0.765625)"/>
       <use xlink:href="#DejaVuSans-30" transform="translate(128.203125 39.046875) scale(0.7)"/>
      </g>
     </g>
    </g>
    <g id="xtick_2">
     <g id="line2d_2">
      <g>
       <use xlink:href="#m4d795bd4c0" x="699.134382" y="674.728" style="stroke: #000000; stroke-width: 0.8"/>
      </g>
     </g>
     <g id="text_2">
      <!-- $\mathdefault{10^{1}}$ -->
      <g transform="translate(690.334382 689.326437) scale(0.1 -0.1)">
       <use xlink:href="#DejaVuSans-31" transform="translate(0 0.684375)"/>
       <use xlink:href="#DejaVuSans-30" transform="translate(63.623047 0.684375)"/>
       <use xlink:href="#DejaVuSans-31" transform="translate(128.203125 38.965625) scale(0.7)"/>
      </g>
     </g>
    </g>
    <g id="xtick_3">
     <g id="line2d_3">
      <defs>
       <path id="m7e234436c1" d="M 0 0 
L 0 2 
" style="stroke: #000000; stroke-width: 0.6"/>
      </defs>
      <g>
       <use xlink:href="#m7e234436c1" x="52.087488" y="674.728" style="stroke: #000000; stroke-width: 0.6"/>
      </g>
     </g>
    </g>
    <g id="xtick_4">
     <g id="line2d_4">
      <g>
       <use xlink:href="#m7e234436c1" x="266.657087" y="674.728" style="stroke: #000000; stroke-width: 0.6"/>
      </g>
     </g>
    </g>
    <g id="xtick_5">
     <g id="line2d_5">
      <g>
       <use xlink:href="#m7e234436c1" x="375.610935" y="674.728" style="stroke: #000000; stroke-width: 0.6"/>
      </g>
     </g>
    </g>
    <g id="xtick_6">
     <g id="line2d_6">
      <g>
       <use xlink:href="#m7e234436c1" x="452.91492" y="674.728" style="stroke: #000000; stroke-width: 0.6"/>
      </g>
     </g>
    </g>
    <g id="xtick_7">
     <g id="line2d_7">
      <g>
       <use xlink:href="#m7e234436c1" x="512.876549" y="674.728" style="stroke: #000000; stroke-width: 0.6"/>
      </g>
     </g>
    </g>
    <g id="xtick_8">
     <g id="line2d_8">
      <g>
       <use xlink:href="#m7e234436c1" x="561.868768" y="674.728" style="stroke: #000000; stroke-width: 0.6"/>
      </g>
     </g>
    </g>
    <g id="xtick_9">
     <g id="line2d_9">
      <g>
       <use xlink:href="#m7e234436c1" x="603.291098" y="674.728" style="stroke: #000000; stroke-width: 0.6"/>
      </g>
     </g>
    </g>
    <g id="xtick_10">
     <g id="line2d_10">
      <g>
       <use xlink:href="#m7e234436c1" x="639.172753" y="674.728" style="stroke: #000000; stroke-width: 0.6"/>
      </g>
     </g>
    </g>
    <g id="xtick_11">
     <g id="line2d_11">
      <g>
       <use xlink:href="#m7e234436c1" x="670.822615" y="674.728" style="stroke: #000000; stroke-width: 0.6"/>
      </g>
     </g>
    </g>
    <g id="text_3">
     <!-- $\tau$ -->
     <g transform="translate(375.341799 703.004563) scale(0.1 -0.1)">
      <defs>
       <path id="DejaVuSans-Oblique-3c4" d="M 2103 638 
Q 2188 488 2525 488 
L 2800 488 
L 2706 0 
L 2363 0 
Q 1800 0 1600 300 
Q 1403 606 1534 1269 
L 1856 2925 
L 541 2925 
L 653 3500 
L 3881 3500 
L 3769 2925 
L 2444 2925 
L 2113 1234 
Q 2025 781 2103 638 
z
" transform="scale(0.015625)"/>
      </defs>
      <use xlink:href="#DejaVuSans-Oblique-3c4" transform="translate(0 0.3125)"/>
     </g>
    </g>
   </g>
   <g id="matplotlib.axis_2">
    <g id="ytick_1">
     <g id="line2d_12">
      <defs>
       <path id="m6f06ba8e6f" d="M 0 0 
L -3.5 0 
" style="stroke: #000000; stroke-width: 0.8"/>
      </defs>
      <g>
       <use xlink:href="#m6f06ba8e6f" x="50.6" y="645.280364" style="stroke: #000000; stroke-width: 0.8"/>
      </g>
     </g>
     <g id="text_4">
      <!-- 0.0 -->
      <g transform="translate(27.696875 649.079582) scale(0.1 -0.1)">
       <defs>
        <path id="DejaVuSans-2e" d="M 684 794 
L 1344 794 
L 1344 0 
L 684 0 
L 684 794 
z
" transform="scale(0.015625)"/>
       </defs>
       <use xlink:href="#DejaVuSans-30"/>
       <use xlink:href="#DejaVuSans-2e" x="63.623047"/>
       <use xlink:href="#DejaVuSans-30" x="95.410156"/>
      </g>
     </g>
    </g>
    <g id="ytick_2">
     <g id="line2d_13">
      <g>
       <use xlink:href="#m6f06ba8e6f" x="50.6" y="527.489818" style="stroke: #000000; stroke-width: 0.8"/>
      </g>
     </g>
     <g id="text_5">
      <!-- 0.2 -->
      <g transform="translate(27.696875 531.289037) scale(0.1 -0.1)">
       <defs>
        <path id="DejaVuSans-32" d="M 1228 531 
L 3431 531 
L 3431 0 
L 469 0 
L 469 531 
Q 828 903 1448 1529 
Q 2069 2156 2228 2338 
Q 2531 2678 2651 2914 
Q 2772 3150 2772 3378 
Q 2772 3750 2511 3984 
Q 2250 4219 1831 4219 
Q 1534 4219 1204 4116 
Q 875 4013 500 3803 
L 500 4441 
Q 881 4594 1212 4672 
Q 1544 4750 1819 4750 
Q 2544 4750 2975 4387 
Q 3406 4025 3406 3419 
Q 3406 3131 3298 2873 
Q 3191 2616 2906 2266 
Q 2828 2175 2409 1742 
Q 1991 1309 1228 531 
z
" transform="scale(0.015625)"/>
       </defs>
       <use xlink:href="#DejaVuSans-30"/>
       <use xlink:href="#DejaVuSans-2e" x="63.623047"/>
       <use xlink:href="#DejaVuSans-32" x="95.410156"/>
      </g>
     </g>
    </g>
    <g id="ytick_3">
     <g id="line2d_14">
      <g>
       <use xlink:href="#m6f06ba8e6f" x="50.6" y="409.699273" style="stroke: #000000; stroke-width: 0.8"/>
      </g>
     </g>
     <g id="text_6">
      <!-- 0.4 -->
      <g transform="translate(27.696875 413.498491) scale(0.1 -0.1)">
       <defs>
        <path id="DejaVuSans-34" d="M 2419 4116 
L 825 1625 
L 2419 1625 
L 2419 4116 
z
M 2253 4666 
L 3047 4666 
L 3047 1625 
L 3713 1625 
L 3713 1100 
L 3047 1100 
L 3047 0 
L 2419 0 
L 2419 1100 
L 313 1100 
L 313 1709 
L 2253 4666 
z
" transform="scale(0.015625)"/>
       </defs>
       <use xlink:href="#DejaVuSans-30"/>
       <use xlink:href="#DejaVuSans-2e" x="63.623047"/>
       <use xlink:href="#DejaVuSans-34" x="95.410156"/>
      </g>
     </g>
    </g>
    <g id="ytick_4">
     <g id="line2d_15">
      <g>
       <use xlink:href="#m6f06ba8e6f" x="50.6" y="291.908727" style="stroke: #000000; stroke-width: 0.8"/>
      </g>
     </g>
     <g id="text_7">
      <!-- 0.6 -->
      <g transform="translate(27.696875 295.707946) scale(0.1 -0.1)">
       <defs>
        <path id="DejaVuSans-36" d="M 2113 2584 
Q 1688 2584 1439 2293 
Q 1191 2003 1191 1497 
Q 1191 994 1439 701 
Q 1688 409 2113 409 
Q 2538 409 2786 701 
Q 3034 994 3034 1497 
Q 3034 2003 2786 2293 
Q 2538 2584 2113 2584 
z
M 3366 4563 
L 3366 3988 
Q 3128 4100 2886 4159 
Q 2644 4219 2406 4219 
Q 1781 4219 1451 3797 
Q 1122 3375 1075 2522 
Q 1259 2794 1537 2939 
Q 1816 3084 2150 3084 
Q 2853 3084 3261 2657 
Q 3669 2231 3669 1497 
Q 3669 778 3244 343 
Q 2819 -91 2113 -91 
Q 1303 -91 875 529 
Q 447 1150 447 2328 
Q 447 3434 972 4092 
Q 1497 4750 2381 4750 
Q 2619 4750 2861 4703 
Q 3103 4656 3366 4563 
z
" transform="scale(0.015625)"/>
       </defs>
       <use xlink:href="#DejaVuSans-30"/>
       <use xlink:href="#DejaVuSans-2e" x="63.623047"/>
       <use xlink:href="#DejaVuSans-36" x="95.410156"/>
      </g>
     </g>
    </g>
    <g id="ytick_5">
     <g id="line2d_16">
      <g>
       <use xlink:href="#m6f06ba8e6f" x="50.6" y="174.118182" style="stroke: #000000; stroke-width: 0.8"/>
      </g>
     </g>
     <g id="text_8">
      <!-- 0.8 -->
      <g transform="translate(27.696875 177.917401) scale(0.1 -0.1)">
       <defs>
        <path id="DejaVuSans-38" d="M 2034 2216 
Q 1584 2216 1326 1975 
Q 1069 1734 1069 1313 
Q 1069 891 1326 650 
Q 1584 409 2034 409 
Q 2484 409 2743 651 
Q 3003 894 3003 1313 
Q 3003 1734 2745 1975 
Q 2488 2216 2034 2216 
z
M 1403 2484 
Q 997 2584 770 2862 
Q 544 3141 544 3541 
Q 544 4100 942 4425 
Q 1341 4750 2034 4750 
Q 2731 4750 3128 4425 
Q 3525 4100 3525 3541 
Q 3525 3141 3298 2862 
Q 3072 2584 2669 2484 
Q 3125 2378 3379 2068 
Q 3634 1759 3634 1313 
Q 3634 634 3220 271 
Q 2806 -91 2034 -91 
Q 1263 -91 848 271 
Q 434 634 434 1313 
Q 434 1759 690 2068 
Q 947 2378 1403 2484 
z
M 1172 3481 
Q 1172 3119 1398 2916 
Q 1625 2713 2034 2713 
Q 2441 2713 2670 2916 
Q 2900 3119 2900 3481 
Q 2900 3844 2670 4047 
Q 2441 4250 2034 4250 
Q 1625 4250 1398 4047 
Q 1172 3844 1172 3481 
z
" transform="scale(0.015625)"/>
       </defs>
       <use xlink:href="#DejaVuSans-30"/>
       <use xlink:href="#DejaVuSans-2e" x="63.623047"/>
       <use xlink:href="#DejaVuSans-38" x="95.410156"/>
      </g>
     </g>
    </g>
    <g id="ytick_6">
     <g id="line2d_17">
      <g>
       <use xlink:href="#m6f06ba8e6f" x="50.6" y="56.327636" style="stroke: #000000; stroke-width: 0.8"/>
      </g>
     </g>
     <g id="text_9">
      <!-- 1.0 -->
      <g transform="translate(27.696875 60.126855) scale(0.1 -0.1)">
       <use xlink:href="#DejaVuSans-31"/>
       <use xlink:href="#DejaVuSans-2e" x="63.623047"/>
       <use xlink:href="#DejaVuSans-30" x="95.410156"/>
      </g>
     </g>
    </g>
    <g id="text_10">
     <!-- $\rho(\tau)$ -->
     <g transform="translate(21.596875 360.904) rotate(-90) scale(0.1 -0.1)">
      <defs>
       <path id="DejaVuSans-Oblique-3c1" d="M 1203 2875 
Q 1453 3194 1981 3475 
Q 2188 3584 2756 3584 
Q 3394 3584 3694 3078 
Q 3994 2572 3834 1747 
Q 3672 922 3175 415 
Q 2678 -91 2041 -91 
Q 1656 -91 1409 63 
Q 1163 213 1044 525 
L 681 -1331 
L 103 -1331 
L 697 1716 
Q 838 2438 1203 2875 
z
M 3238 1747 
Q 3359 2381 3169 2744 
Q 2978 3103 2522 3103 
Q 2066 3103 1734 2744 
Q 1403 2381 1281 1747 
Q 1156 1113 1347 750 
Q 1538 391 1994 391 
Q 2450 391 2781 750 
Q 3113 1113 3238 1747 
z
" transform="scale(0.015625)"/>
       <path id="DejaVuSans-28" d="M 1984 4856 
Q 1566 4138 1362 3434 
Q 1159 2731 1159 2009 
Q 1159 1288 1364 580 
Q 1569 -128 1984 -844 
L 1484 -844 
Q 1016 -109 783 600 
Q 550 1309 550 2009 
Q 550 2706 781 3412 
Q 1013 4119 1484 4856 
L 1984 4856 
z
" transform="scale(0.015625)"/>
       <path id="DejaVuSans-29" d="M 513 4856 
L 1013 4856 
Q 1481 4119 1714 3412 
Q 1947 2706 1947 2009 
Q 1947 1309 1714 600 
Q 1481 -109 1013 -844 
L 513 -844 
Q 928 -128 1133 580 
Q 1338 1288 1338 2009 
Q 1338 2731 1133 3434 
Q 928 4138 513 4856 
z
" transform="scale(0.015625)"/>
      </defs>
      <use xlink:href="#DejaVuSans-Oblique-3c1" transform="translate(0 0.125)"/>
      <use xlink:href="#DejaVuSans-28" transform="translate(63.476562 0.125)"/>
      <use xlink:href="#DejaVuSans-Oblique-3c4" transform="translate(102.490234 0.125)"/>
      <use xlink:href="#DejaVuSans-29" transform="translate(162.695312 0.125)"/>
     </g>
    </g>
   </g>
   <g id="line2d_18">
    <path d="M 80.399254 645.280364 
L 80.399254 645.280364 
L 80.399254 586.385091 
L 101.812904 586.385091 
L 101.812904 527.489818 
L 120.691166 527.489818 
L 120.691166 468.594545 
L 130.202197 468.594545 
L 130.202197 409.699273 
L 133.520128 409.699273 
L 133.520128 350.804 
L 135.637286 350.804 
L 135.637286 291.908727 
L 144.469315 291.908727 
L 144.469315 233.013455 
L 150.93159 233.013455 
L 150.93159 174.118182 
L 156.908793 174.118182 
L 156.908793 115.222909 
L 240.381782 115.222909 
L 240.381782 56.327636 
L 676.384343 56.327636 
" clip-path="url(#pada4ab9e18)" style="fill: none; stroke: #1f77b4; stroke-width: 1.5; stroke-linecap: square"/>
   </g>
   <g id="line2d_19">
    <path d="M 80.399254 645.280364 
L 80.399254 645.280364 
L 80.399254 586.385091 
L 115.379327 586.385091 
L 115.379327 527.489818 
L 130.369052 527.489818 
L 130.369052 468.594545 
L 137.348367 468.594545 
L 137.348367 409.699273 
L 144.562992 409.699273 
L 144.562992 350.804 
L 145.18849 350.804 
L 145.18849 291.908727 
L 145.817778 291.908727 
L 145.817778 233.013455 
L 166.067064 233.013455 
L 166.067064 174.118182 
L 175.860602 174.118182 
L 175.860602 115.222909 
L 219.581131 115.222909 
L 219.581131 56.327636 
L 676.384343 56.327636 
" clip-path="url(#pada4ab9e18)" style="fill: none; stroke-dasharray: 1.5,2.475; stroke-dashoffset: 0; stroke: #ff7f0e; stroke-width: 1.5"/>
   </g>
   <g id="line2d_20">
    <path d="M 80.399254 645.280364 
L 107.78224 645.280364 
L 107.78224 586.385091 
L 120.493543 586.385091 
L 120.493543 527.489818 
L 137.189386 527.489818 
L 137.189386 468.594545 
L 139.888324 468.594545 
L 139.888324 409.699273 
L 153.269187 409.699273 
L 153.269187 350.804 
L 155.227642 350.804 
L 155.227642 291.908727 
L 158.161655 291.908727 
L 158.161655 233.013455 
L 166.480248 233.013455 
L 166.480248 174.118182 
L 168.681423 174.118182 
L 168.681423 115.222909 
L 247.52442 115.222909 
L 247.52442 56.327636 
L 676.384343 56.327636 
" clip-path="url(#pada4ab9e18)" style="fill: none; stroke-dasharray: 5.55,2.4; stroke-dashoffset: 0; stroke: #2ca02c; stroke-width: 1.5"/>
   </g>
   <g id="line2d_21">
    <path d="M 80.399254 645.280364 
L 80.399254 645.280364 
L 80.399254 586.385091 
L 124.425337 586.385091 
L 124.425337 527.489818 
L 138.261175 527.489818 
L 138.261175 468.594545 
L 141.825497 468.594545 
L 141.825497 409.699273 
L 148.793789 409.699273 
L 148.793789 350.804 
L 152.820538 350.804 
L 152.820538 291.908727 
L 154.625478 291.908727 
L 154.625478 233.013455 
L 159.820623 233.013455 
L 159.820623 174.118182 
L 218.075126 174.118182 
L 218.075126 115.222909 
L 251.479365 115.222909 
L 251.479365 56.327636 
L 676.384343 56.327636 
" clip-path="url(#pada4ab9e18)" style="fill: none; stroke-dasharray: 9.6,2.4,1.5,2.4; stroke-dashoffset: 0; stroke: #d62728; stroke-width: 1.5"/>
   </g>
   <g id="line2d_22">
    <path d="M 80.399254 645.280364 
L 80.399254 645.280364 
L 80.399254 586.385091 
L 124.391209 586.385091 
L 124.391209 527.489818 
L 139.637922 527.489818 
L 139.637922 468.594545 
L 140.838996 468.594545 
L 140.838996 409.699273 
L 147.758959 409.699273 
L 147.758959 350.804 
L 149.628261 350.804 
L 149.628261 291.908727 
L 162.526578 291.908727 
L 162.526578 233.013455 
L 162.766973 233.013455 
L 162.766973 174.118182 
L 171.600361 174.118182 
L 171.600361 115.222909 
L 297.478472 115.222909 
L 297.478472 56.327636 
L 676.384343 56.327636 
" clip-path="url(#pada4ab9e18)" style="fill: none; stroke-dasharray: 1.5,1.5; stroke-dashoffset: 0; stroke: #9467bd; stroke-width: 1.5"/>
   </g>
   <g id="line2d_23">
    <path d="M 80.399254 645.280364 
L 90.349626 645.280364 
L 90.349626 586.385091 
L 92.391695 586.385091 
L 92.391695 527.489818 
L 106.340262 527.489818 
L 106.340262 468.594545 
L 120.080373 468.594545 
L 120.080373 409.699273 
L 128.091506 409.699273 
L 128.091506 350.804 
L 143.62536 350.804 
L 143.62536 291.908727 
L 165.720065 291.908727 
L 165.720065 233.013455 
L 165.934199 233.013455 
L 165.934199 174.118182 
L 174.633043 174.118182 
L 174.633043 115.222909 
L 351.526986 115.222909 
L 351.526986 56.327636 
L 676.384343 56.327636 
" clip-path="url(#pada4ab9e18)" style="fill: none; stroke-dasharray: 1.5,15; stroke-dashoffset: 0; stroke: #8c564b; stroke-width: 1.5"/>
   </g>
   <g id="line2d_24">
    <path d="M 80.399254 645.280364 
L 80.399254 645.280364 
L 80.399254 586.385091 
L 130.883197 586.385091 
L 130.883197 527.489818 
L 139.303812 527.489818 
L 139.303812 468.594545 
L 140.142301 468.594545 
L 140.142301 409.699273 
L 148.439956 409.699273 
L 148.439956 350.804 
L 152.599696 350.804 
L 152.599696 291.908727 
L 168.143961 291.908727 
L 168.143961 233.013455 
L 181.609924 233.013455 
L 181.609924 174.118182 
L 184.176094 174.118182 
L 184.176094 115.222909 
L 283.496799 115.222909 
L 283.496799 56.327636 
L 676.384343 56.327636 
" clip-path="url(#pada4ab9e18)" style="fill: none; stroke-dasharray: 1.5,1.5; stroke-dashoffset: 0; stroke: #e377c2; stroke-width: 1.5"/>
   </g>
   <g id="line2d_25">
    <path d="M 80.399254 645.280364 
L 80.399254 645.280364 
L 80.399254 586.385091 
L 80.399254 586.385091 
L 80.399254 527.489818 
L 123.514779 527.489818 
L 123.514779 468.594545 
L 131.482604 468.594545 
L 131.482604 409.699273 
L 140.294007 409.699273 
L 140.294007 350.804 
L 156.760732 350.804 
L 156.760732 291.908727 
L 172.41617 291.908727 
L 172.41617 233.013455 
L 176.801787 233.013455 
L 176.801787 174.118182 
L 185.3197 174.118182 
L 185.3197 115.222909 
L 329.961644 115.222909 
L 329.961644 56.327636 
L 676.384343 56.327636 
" clip-path="url(#pada4ab9e18)" style="fill: none; stroke-dasharray: 15,4.5; stroke-dashoffset: 7.5; stroke: #7f7f7f; stroke-width: 1.5"/>
   </g>
   <g id="line2d_26">
    <path d="M 80.399254 645.280364 
L 80.399254 645.280364 
L 80.399254 586.385091 
L 104.021537 586.385091 
L 104.021537 527.489818 
L 111.041765 527.489818 
L 111.041765 468.594545 
L 115.469961 468.594545 
L 115.469961 409.699273 
L 140.405961 409.699273 
L 140.405961 350.804 
L 150.149771 350.804 
L 150.149771 291.908727 
L 158.403327 291.908727 
L 158.403327 233.013455 
L 169.393364 233.013455 
L 169.393364 174.118182 
L 175.15505 174.118182 
L 175.15505 115.222909 
L 369.963657 115.222909 
L 369.963657 56.327636 
L 676.384343 56.327636 
" clip-path="url(#pada4ab9e18)" style="fill: none; stroke-dasharray: 7.5,15; stroke-dashoffset: 0; stroke: #bcbd22; stroke-width: 1.5"/>
   </g>
   <g id="line2d_27">
    <path d="M 80.399254 645.280364 
L 80.399254 645.280364 
L 80.399254 586.385091 
L 109.466491 586.385091 
L 109.466491 527.489818 
L 123.853458 527.489818 
L 123.853458 468.594545 
L 145.491859 468.594545 
L 145.491859 409.699273 
L 149.051964 409.699273 
L 149.051964 350.804 
L 161.748323 350.804 
L 161.748323 291.908727 
L 188.644937 291.908727 
L 188.644937 233.013455 
L 192.104111 233.013455 
L 192.104111 174.118182 
L 193.928026 174.118182 
L 193.928026 115.222909 
L 317.942507 115.222909 
L 317.942507 56.327636 
L 676.384343 56.327636 
" clip-path="url(#pada4ab9e18)" style="fill: none; stroke-dasharray: 7.5,7.5; stroke-dashoffset: 0; stroke: #17becf; stroke-width: 1.5"/>
   </g>
   <g id="line2d_28">
    <path d="M 80.399254 645.280364 
L 80.399254 645.280364 
L 80.399254 586.385091 
L 117.159874 586.385091 
L 117.159874 527.489818 
L 121.412721 527.489818 
L 121.412721 468.594545 
L 127.578996 468.594545 
L 127.578996 409.699273 
L 133.924245 409.699273 
L 133.924245 350.804 
L 184.416768 350.804 
L 184.416768 291.908727 
L 189.343459 291.908727 
L 189.343459 233.013455 
L 192.202739 233.013455 
L 192.202739 174.118182 
L 215.29219 174.118182 
L 215.29219 115.222909 
L 306.341204 115.222909 
L 306.341204 56.327636 
L 676.384343 56.327636 
" clip-path="url(#pada4ab9e18)" style="fill: none; stroke-dasharray: 7.5,1.5; stroke-dashoffset: 0; stroke: #1f77b4; stroke-width: 1.5"/>
   </g>
   <g id="line2d_29">
    <path d="M 80.399254 645.280364 
L 112.081764 645.280364 
L 112.081764 586.385091 
L 117.058009 586.385091 
L 117.058009 527.489818 
L 125.66625 527.489818 
L 125.66625 468.594545 
L 141.751414 468.594545 
L 141.751414 409.699273 
L 161.080904 409.699273 
L 161.080904 350.804 
L 161.22572 350.804 
L 161.22572 291.908727 
L 163.358361 291.908727 
L 163.358361 233.013455 
L 172.635378 233.013455 
L 172.635378 174.118182 
L 254.322155 174.118182 
L 254.322155 115.222909 
L 294.45969 115.222909 
L 294.45969 56.327636 
L 676.384343 56.327636 
" clip-path="url(#pada4ab9e18)" style="fill: none; stroke-dasharray: 4.5,15,1.5,15; stroke-dashoffset: 0; stroke: #ff7f0e; stroke-width: 1.5"/>
   </g>
   <g id="line2d_30">
    <path d="M 80.399254 645.280364 
L 80.399254 645.280364 
L 80.399254 586.385091 
L 109.462191 586.385091 
L 109.462191 527.489818 
L 125.223038 527.489818 
L 125.223038 468.594545 
L 125.329641 468.594545 
L 125.329641 409.699273 
L 131.113106 409.699273 
L 131.113106 350.804 
L 144.299631 350.804 
L 144.299631 291.908727 
L 149.350074 291.908727 
L 149.350074 233.013455 
L 157.136429 233.013455 
L 157.136429 174.118182 
L 215.095254 174.118182 
L 215.095254 115.222909 
L 384.487028 115.222909 
L 384.487028 56.327636 
L 676.384343 56.327636 
" clip-path="url(#pada4ab9e18)" style="fill: none; stroke-dasharray: 4.5,7.5,1.5,7.5; stroke-dashoffset: 0; stroke: #2ca02c; stroke-width: 1.5"/>
   </g>
   <g id="line2d_31">
    <path d="M 80.399254 645.280364 
L 120.144016 645.280364 
L 120.144016 586.385091 
L 123.352199 586.385091 
L 123.352199 527.489818 
L 135.760865 527.489818 
L 135.760865 468.594545 
L 136.679046 468.594545 
L 136.679046 409.699273 
L 148.390782 409.699273 
L 148.390782 350.804 
L 148.991268 350.804 
L 148.991268 291.908727 
L 153.474832 291.908727 
L 153.474832 233.013455 
L 171.149708 233.013455 
L 171.149708 174.118182 
L 247.026952 174.118182 
L 247.026952 115.222909 
L 327.105715 115.222909 
L 327.105715 56.327636 
L 676.384343 56.327636 
" clip-path="url(#pada4ab9e18)" style="fill: none; stroke-dasharray: 4.5,1.5,1.5,1.5; stroke-dashoffset: 0; stroke: #d62728; stroke-width: 1.5"/>
   </g>
   <g id="line2d_32">
    <path d="M 80.399254 645.280364 
L 80.399254 645.280364 
L 80.399254 586.385091 
L 148.911493 586.385091 
L 148.911493 527.489818 
L 149.360335 527.489818 
L 149.360335 468.594545 
L 154.427404 468.594545 
L 154.427404 409.699273 
L 158.07642 409.699273 
L 158.07642 350.804 
L 160.006878 350.804 
L 160.006878 291.908727 
L 161.186314 291.908727 
L 161.186314 233.013455 
L 176.110595 233.013455 
L 176.110595 174.118182 
L 176.874808 174.118182 
L 176.874808 115.222909 
L 361.957908 115.222909 
L 361.957908 56.327636 
L 676.384343 56.327636 
" clip-path="url(#pada4ab9e18)" style="fill: none; stroke-dasharray: 4.5,7.5,1.5,7.5,1.5,7.5; stroke-dashoffset: 0; stroke: #9467bd; stroke-width: 1.5"/>
   </g>
   <g id="line2d_33">
    <path d="M 80.399254 645.280364 
L 80.399254 645.280364 
L 80.399254 586.385091 
L 99.822449 586.385091 
L 99.822449 527.489818 
L 137.080154 527.489818 
L 137.080154 468.594545 
L 144.327065 468.594545 
L 144.327065 409.699273 
L 148.815187 409.699273 
L 148.815187 350.804 
L 152.479931 350.804 
L 152.479931 291.908727 
L 154.436785 291.908727 
L 154.436785 233.013455 
L 156.834022 233.013455 
L 156.834022 174.118182 
L 161.429263 174.118182 
L 161.429263 115.222909 
L 418.6477 115.222909 
L 418.6477 56.327636 
L 676.384343 56.327636 
" clip-path="url(#pada4ab9e18)" style="fill: none; stroke-dasharray: 4.5,15,1.5,15,1.5,15; stroke-dashoffset: 0; stroke: #8c564b; stroke-width: 1.5"/>
   </g>
   <g id="line2d_34">
    <path d="M 80.399254 645.280364 
L 80.399254 645.280364 
L 80.399254 586.385091 
L 95.060465 586.385091 
L 95.060465 527.489818 
L 108.733684 527.489818 
L 108.733684 468.594545 
L 125.430503 468.594545 
L 125.430503 409.699273 
L 176.354787 409.699273 
L 176.354787 350.804 
L 179.576391 350.804 
L 179.576391 291.908727 
L 193.549291 291.908727 
L 193.549291 233.013455 
L 193.994889 233.013455 
L 193.994889 174.118182 
L 197.306231 174.118182 
L 197.306231 115.222909 
L 397.818156 115.222909 
L 397.818156 56.327636 
L 676.384343 56.327636 
" clip-path="url(#pada4ab9e18)" style="fill: none; stroke-dasharray: 4.5,1.5,1.5,1.5,1.5,1.5; stroke-dashoffset: 0; stroke: #e377c2; stroke-width: 1.5"/>
   </g>
   <g id="line2d_35">
    <path d="M 80.399254 645.280364 
L 123.061916 645.280364 
L 123.061916 586.385091 
L 125.272823 586.385091 
L 125.272823 527.489818 
L 150.043658 527.489818 
L 150.043658 468.594545 
L 152.758543 468.594545 
L 152.758543 409.699273 
L 152.809441 409.699273 
L 152.809441 350.804 
L 165.439297 350.804 
L 165.439297 291.908727 
L 171.796678 291.908727 
L 171.796678 233.013455 
L 190.319097 233.013455 
L 190.319097 174.118182 
L 291.918846 174.118182 
L 291.918846 115.222909 
L 323.958478 115.222909 
L 323.958478 56.327636 
L 676.384343 56.327636 
" clip-path="url(#pada4ab9e18)" style="fill: none; stroke: #7f7f7f; stroke-width: 1.5; stroke-linecap: square"/>
   </g>
   <g id="line2d_36">
    <path d="M 80.399254 645.280364 
L 80.399254 645.280364 
L 80.399254 586.385091 
L 135.104422 586.385091 
L 135.104422 527.489818 
L 144.390738 527.489818 
L 144.390738 468.594545 
L 152.419488 468.594545 
L 152.419488 409.699273 
L 154.149602 409.699273 
L 154.149602 350.804 
L 163.564385 350.804 
L 163.564385 291.908727 
L 171.51943 291.908727 
L 171.51943 233.013455 
L 177.780408 233.013455 
L 177.780408 174.118182 
L 185.707986 174.118182 
L 185.707986 115.222909 
L 424.169816 115.222909 
L 424.169816 56.327636 
L 676.384343 56.327636 
" clip-path="url(#pada4ab9e18)" style="fill: none; stroke-dasharray: 1.5,2.475; stroke-dashoffset: 0; stroke: #bcbd22; stroke-width: 1.5"/>
   </g>
   <g id="line2d_37">
    <path d="M 80.399254 645.280364 
L 134.675077 645.280364 
L 134.675077 586.385091 
L 141.180413 586.385091 
L 141.180413 527.489818 
L 155.230043 527.489818 
L 155.230043 468.594545 
L 157.844949 468.594545 
L 157.844949 409.699273 
L 172.369112 409.699273 
L 172.369112 350.804 
L 181.572324 350.804 
L 181.572324 291.908727 
L 188.94878 291.908727 
L 188.94878 233.013455 
L 195.609684 233.013455 
L 195.609684 174.118182 
L 199.991121 174.118182 
L 199.991121 115.222909 
L 388.448034 115.222909 
L 388.448034 56.327636 
L 676.384343 56.327636 
" clip-path="url(#pada4ab9e18)" style="fill: none; stroke-dasharray: 5.55,2.4; stroke-dashoffset: 0; stroke: #17becf; stroke-width: 1.5"/>
   </g>
   <g id="line2d_38">
    <path d="M 80.399254 645.280364 
L 137.58355 645.280364 
L 137.58355 586.385091 
L 152.26991 586.385091 
L 152.26991 527.489818 
L 158.386131 527.489818 
L 158.386131 468.594545 
L 161.081713 468.594545 
L 161.081713 409.699273 
L 165.973274 409.699273 
L 165.973274 350.804 
L 176.397004 350.804 
L 176.397004 291.908727 
L 179.633853 291.908727 
L 179.633853 233.013455 
L 185.190639 233.013455 
L 185.190639 174.118182 
L 304.049542 174.118182 
L 304.049542 115.222909 
L 341.727269 115.222909 
L 341.727269 56.327636 
L 676.384343 56.327636 
" clip-path="url(#pada4ab9e18)" style="fill: none; stroke-dasharray: 9.6,2.4,1.5,2.4; stroke-dashoffset: 0; stroke: #1f77b4; stroke-width: 1.5"/>
   </g>
   <g id="line2d_39">
    <path d="M 80.399254 645.280364 
L 106.814074 645.280364 
L 106.814074 586.385091 
L 127.496626 586.385091 
L 127.496626 527.489818 
L 136.014928 527.489818 
L 136.014928 468.594545 
L 141.933165 468.594545 
L 141.933165 409.699273 
L 141.961684 409.699273 
L 141.961684 350.804 
L 161.193499 350.804 
L 161.193499 291.908727 
L 171.350816 291.908727 
L 171.350816 233.013455 
L 181.374679 233.013455 
L 181.374679 174.118182 
L 247.28619 174.118182 
L 247.28619 115.222909 
L 454.215669 115.222909 
L 454.215669 56.327636 
L 676.384343 56.327636 
" clip-path="url(#pada4ab9e18)" style="fill: none; stroke-dasharray: 1.5,1.5; stroke-dashoffset: 0; stroke: #ff7f0e; stroke-width: 1.5"/>
   </g>
   <g id="line2d_40">
    <path d="M 80.399254 645.280364 
L 119.258732 645.280364 
L 119.258732 586.385091 
L 155.363673 586.385091 
L 155.363673 527.489818 
L 155.474033 527.489818 
L 155.474033 468.594545 
L 156.081334 468.594545 
L 156.081334 409.699273 
L 176.350627 409.699273 
L 176.350627 350.804 
L 179.352104 350.804 
L 179.352104 291.908727 
L 206.448329 291.908727 
L 206.448329 233.013455 
L 215.058119 233.013455 
L 215.058119 174.118182 
L 295.905448 174.118182 
L 295.905448 115.222909 
L 372.956536 115.222909 
L 372.956536 56.327636 
L 676.384343 56.327636 
" clip-path="url(#pada4ab9e18)" style="fill: none; stroke-dasharray: 1.5,15; stroke-dashoffset: 0; stroke: #2ca02c; stroke-width: 1.5"/>
   </g>
   <g id="line2d_41">
    <path d="M 80.399254 645.280364 
L 115.818377 645.280364 
L 115.818377 586.385091 
L 146.658373 586.385091 
L 146.658373 527.489818 
L 150.977256 527.489818 
L 150.977256 468.594545 
L 160.369653 468.594545 
L 160.369653 409.699273 
L 168.622385 409.699273 
L 168.622385 350.804 
L 170.995108 350.804 
L 170.995108 291.908727 
L 185.530366 291.908727 
L 185.530366 233.013455 
L 190.157859 233.013455 
L 190.157859 174.118182 
L 280.482769 174.118182 
L 280.482769 115.222909 
L 430.433179 115.222909 
L 430.433179 56.327636 
L 676.384343 56.327636 
" clip-path="url(#pada4ab9e18)" style="fill: none; stroke-dasharray: 1.5,1.5; stroke-dashoffset: 0; stroke: #d62728; stroke-width: 1.5"/>
   </g>
   <g id="line2d_42">
    <path d="M 80.399254 645.280364 
L 151.312512 645.280364 
L 151.312512 586.385091 
L 156.801372 586.385091 
L 156.801372 527.489818 
L 159.565821 527.489818 
L 159.565821 468.594545 
L 169.145078 468.594545 
L 169.145078 409.699273 
L 171.357997 409.699273 
L 171.357997 350.804 
L 185.675675 350.804 
L 185.675675 291.908727 
L 197.854985 291.908727 
L 197.854985 233.013455 
L 203.036504 233.013455 
L 203.036504 174.118182 
L 355.071029 174.118182 
L 355.071029 115.222909 
L 433.814818 115.222909 
L 433.814818 56.327636 
L 676.384343 56.327636 
" clip-path="url(#pada4ab9e18)" style="fill: none; stroke-dasharray: 15,4.5; stroke-dashoffset: 7.5; stroke: #9467bd; stroke-width: 1.5"/>
   </g>
   <g id="line2d_43">
    <path d="M 80.399254 645.280364 
L 131.889519 645.280364 
L 131.889519 586.385091 
L 133.135449 586.385091 
L 133.135449 527.489818 
L 145.8565 527.489818 
L 145.8565 468.594545 
L 149.544763 468.594545 
L 149.544763 409.699273 
L 153.07287 409.699273 
L 153.07287 350.804 
L 180.085063 350.804 
L 180.085063 291.908727 
L 192.932377 291.908727 
L 192.932377 233.013455 
L 208.191179 233.013455 
L 208.191179 174.118182 
L 282.658591 174.118182 
L 282.658591 115.222909 
L 544.058479 115.222909 
L 544.058479 56.327636 
L 676.384343 56.327636 
" clip-path="url(#pada4ab9e18)" style="fill: none; stroke-dasharray: 7.5,15; stroke-dashoffset: 0; stroke: #8c564b; stroke-width: 1.5"/>
   </g>
   <g id="line2d_44">
    <path d="M 80.399254 645.280364 
L 145.348983 645.280364 
L 145.348983 586.385091 
L 159.22242 586.385091 
L 159.22242 527.489818 
L 165.439913 527.489818 
L 165.439913 468.594545 
L 177.308666 468.594545 
L 177.308666 409.699273 
L 178.107919 409.699273 
L 178.107919 350.804 
L 187.560089 350.804 
L 187.560089 291.908727 
L 203.703052 291.908727 
L 203.703052 233.013455 
L 212.21772 233.013455 
L 212.21772 174.118182 
L 412.182683 174.118182 
L 412.182683 115.222909 
L 483.406628 115.222909 
L 483.406628 56.327636 
L 676.384343 56.327636 
" clip-path="url(#pada4ab9e18)" style="fill: none; stroke-dasharray: 7.5,7.5; stroke-dashoffset: 0; stroke: #e377c2; stroke-width: 1.5"/>
   </g>
   <g id="line2d_45">
    <path d="M 80.399254 645.280364 
L 116.966838 645.280364 
L 116.966838 586.385091 
L 128.652566 586.385091 
L 128.652566 527.489818 
L 130.701507 527.489818 
L 130.701507 468.594545 
L 134.528817 468.594545 
L 134.528817 409.699273 
L 159.216238 409.699273 
L 159.216238 350.804 
L 168.483616 350.804 
L 168.483616 291.908727 
L 169.80722 291.908727 
L 169.80722 233.013455 
L 205.043353 233.013455 
L 205.043353 174.118182 
L 291.42035 174.118182 
L 291.42035 115.222909 
L 606.318639 115.222909 
L 606.318639 56.327636 
L 676.384343 56.327636 
" clip-path="url(#pada4ab9e18)" style="fill: none; stroke-dasharray: 7.5,1.5; stroke-dashoffset: 0; stroke: #7f7f7f; stroke-width: 1.5"/>
   </g>
   <g id="line2d_46">
    <path d="M 80.399254 645.280364 
L 149.427133 645.280364 
L 149.427133 586.385091 
L 157.469517 586.385091 
L 157.469517 527.489818 
L 164.767977 527.489818 
L 164.767977 468.594545 
L 185.057999 468.594545 
L 185.057999 409.699273 
L 191.832749 409.699273 
L 191.832749 350.804 
L 215.199946 350.804 
L 215.199946 291.908727 
L 218.104642 291.908727 
L 218.104642 233.013455 
L 240.353363 233.013455 
L 240.353363 174.118182 
L 418.144262 174.118182 
L 418.144262 115.222909 
L 467.817201 115.222909 
L 467.817201 56.327636 
L 676.384343 56.327636 
" clip-path="url(#pada4ab9e18)" style="fill: none; stroke-dasharray: 4.5,15,1.5,15; stroke-dashoffset: 0; stroke: #bcbd22; stroke-width: 1.5"/>
   </g>
   <g id="line2d_47">
    <path d="M 80.399254 645.280364 
L 129.112953 645.280364 
L 129.112953 586.385091 
L 132.947522 586.385091 
L 132.947522 527.489818 
L 135.054711 527.489818 
L 135.054711 468.594545 
L 144.224606 468.594545 
L 144.224606 409.699273 
L 150.783569 409.699273 
L 150.783569 350.804 
L 153.879051 350.804 
L 153.879051 291.908727 
L 175.062652 291.908727 
L 175.062652 233.013455 
L 213.078976 233.013455 
L 213.078976 174.118182 
L 415.464843 174.118182 
L 415.464843 115.222909 
L 676.384343 115.222909 
L 676.384343 56.327636 
L 676.384343 56.327636 
" clip-path="url(#pada4ab9e18)" style="fill: none; stroke-dasharray: 4.5,7.5,1.5,7.5; stroke-dashoffset: 0; stroke: #17becf; stroke-width: 1.5"/>
   </g>
   <g id="patch_3">
    <path d="M 50.6 674.728 
L 50.6 26.88 
" style="fill: none; stroke: #000000; stroke-width: 0.8; stroke-linejoin: miter; stroke-linecap: square"/>
   </g>
   <g id="patch_4">
    <path d="M 706.183597 674.728 
L 706.183597 26.88 
" style="fill: none; stroke: #000000; stroke-width: 0.8; stroke-linejoin: miter; stroke-linecap: square"/>
   </g>
   <g id="patch_5">
    <path d="M 50.6 674.728 
L 706.183597 674.728 
" style="fill: none; stroke: #000000; stroke-width: 0.8; stroke-linejoin: miter; stroke-linecap: square"/>
   </g>
   <g id="patch_6">
    <path d="M 50.6 26.88 
L 706.183597 26.88 
" style="fill: none; stroke: #000000; stroke-width: 0.8; stroke-linejoin: miter; stroke-linecap: square"/>
   </g>
   <g id="text_11">
    <!-- Performance Profiles -->
    <g transform="translate(316.687424 20.88) scale(0.12 -0.12)">
     <defs>
      <path id="DejaVuSans-50" d="M 1259 4147 
L 1259 2394 
L 2053 2394 
Q 2494 2394 2734 2622 
Q 2975 2850 2975 3272 
Q 2975 3691 2734 3919 
Q 2494 4147 2053 4147 
L 1259 4147 
z
M 628 4666 
L 2053 4666 
Q 2838 4666 3239 4311 
Q 3641 3956 3641 3272 
Q 3641 2581 3239 2228 
Q 2838 1875 2053 1875 
L 1259 1875 
L 1259 0 
L 628 0 
L 628 4666 
z
" transform="scale(0.015625)"/>
      <path id="DejaVuSans-65" d="M 3597 1894 
L 3597 1613 
L 953 1613 
Q 991 1019 1311 708 
Q 1631 397 2203 397 
Q 2534 397 2845 478 
Q 3156 559 3463 722 
L 3463 178 
Q 3153 47 2828 -22 
Q 2503 -91 2169 -91 
Q 1331 -91 842 396 
Q 353 884 353 1716 
Q 353 2575 817 3079 
Q 1281 3584 2069 3584 
Q 2775 3584 3186 3129 
Q 3597 2675 3597 1894 
z
M 3022 2063 
Q 3016 2534 2758 2815 
Q 2500 3097 2075 3097 
Q 1594 3097 1305 2825 
Q 1016 2553 972 2059 
L 3022 2063 
z
" transform="scale(0.015625)"/>
      <path id="DejaVuSans-72" d="M 2631 2963 
Q 2534 3019 2420 3045 
Q 2306 3072 2169 3072 
Q 1681 3072 1420 2755 
Q 1159 2438 1159 1844 
L 1159 0 
L 581 0 
L 581 3500 
L 1159 3500 
L 1159 2956 
Q 1341 3275 1631 3429 
Q 1922 3584 2338 3584 
Q 2397 3584 2469 3576 
Q 2541 3569 2628 3553 
L 2631 2963 
z
" transform="scale(0.015625)"/>
      <path id="DejaVuSans-66" d="M 2375 4863 
L 2375 4384 
L 1825 4384 
Q 1516 4384 1395 4259 
Q 1275 4134 1275 3809 
L 1275 3500 
L 2222 3500 
L 2222 3053 
L 1275 3053 
L 1275 0 
L 697 0 
L 697 3053 
L 147 3053 
L 147 3500 
L 697 3500 
L 697 3744 
Q 697 4328 969 4595 
Q 1241 4863 1831 4863 
L 2375 4863 
z
" transform="scale(0.015625)"/>
      <path id="DejaVuSans-6f" d="M 1959 3097 
Q 1497 3097 1228 2736 
Q 959 2375 959 1747 
Q 959 1119 1226 758 
Q 1494 397 1959 397 
Q 2419 397 2687 759 
Q 2956 1122 2956 1747 
Q 2956 2369 2687 2733 
Q 2419 3097 1959 3097 
z
M 1959 3584 
Q 2709 3584 3137 3096 
Q 3566 2609 3566 1747 
Q 3566 888 3137 398 
Q 2709 -91 1959 -91 
Q 1206 -91 779 398 
Q 353 888 353 1747 
Q 353 2609 779 3096 
Q 1206 3584 1959 3584 
z
" transform="scale(0.015625)"/>
      <path id="DejaVuSans-6d" d="M 3328 2828 
Q 3544 3216 3844 3400 
Q 4144 3584 4550 3584 
Q 5097 3584 5394 3201 
Q 5691 2819 5691 2113 
L 5691 0 
L 5113 0 
L 5113 2094 
Q 5113 2597 4934 2840 
Q 4756 3084 4391 3084 
Q 3944 3084 3684 2787 
Q 3425 2491 3425 1978 
L 3425 0 
L 2847 0 
L 2847 2094 
Q 2847 2600 2669 2842 
Q 2491 3084 2119 3084 
Q 1678 3084 1418 2786 
Q 1159 2488 1159 1978 
L 1159 0 
L 581 0 
L 581 3500 
L 1159 3500 
L 1159 2956 
Q 1356 3278 1631 3431 
Q 1906 3584 2284 3584 
Q 2666 3584 2933 3390 
Q 3200 3197 3328 2828 
z
" transform="scale(0.015625)"/>
      <path id="DejaVuSans-61" d="M 2194 1759 
Q 1497 1759 1228 1600 
Q 959 1441 959 1056 
Q 959 750 1161 570 
Q 1363 391 1709 391 
Q 2188 391 2477 730 
Q 2766 1069 2766 1631 
L 2766 1759 
L 2194 1759 
z
M 3341 1997 
L 3341 0 
L 2766 0 
L 2766 531 
Q 2569 213 2275 61 
Q 1981 -91 1556 -91 
Q 1019 -91 701 211 
Q 384 513 384 1019 
Q 384 1609 779 1909 
Q 1175 2209 1959 2209 
L 2766 2209 
L 2766 2266 
Q 2766 2663 2505 2880 
Q 2244 3097 1772 3097 
Q 1472 3097 1187 3025 
Q 903 2953 641 2809 
L 641 3341 
Q 956 3463 1253 3523 
Q 1550 3584 1831 3584 
Q 2591 3584 2966 3190 
Q 3341 2797 3341 1997 
z
" transform="scale(0.015625)"/>
      <path id="DejaVuSans-6e" d="M 3513 2113 
L 3513 0 
L 2938 0 
L 2938 2094 
Q 2938 2591 2744 2837 
Q 2550 3084 2163 3084 
Q 1697 3084 1428 2787 
Q 1159 2491 1159 1978 
L 1159 0 
L 581 0 
L 581 3500 
L 1159 3500 
L 1159 2956 
Q 1366 3272 1645 3428 
Q 1925 3584 2291 3584 
Q 2894 3584 3203 3211 
Q 3513 2838 3513 2113 
z
" transform="scale(0.015625)"/>
      <path id="DejaVuSans-63" d="M 3122 3366 
L 3122 2828 
Q 2878 2963 2633 3030 
Q 2388 3097 2138 3097 
Q 1578 3097 1268 2742 
Q 959 2388 959 1747 
Q 959 1106 1268 751 
Q 1578 397 2138 397 
Q 2388 397 2633 464 
Q 2878 531 3122 666 
L 3122 134 
Q 2881 22 2623 -34 
Q 2366 -91 2075 -91 
Q 1284 -91 818 406 
Q 353 903 353 1747 
Q 353 2603 823 3093 
Q 1294 3584 2113 3584 
Q 2378 3584 2631 3529 
Q 2884 3475 3122 3366 
z
" transform="scale(0.015625)"/>
      <path id="DejaVuSans-20" transform="scale(0.015625)"/>
      <path id="DejaVuSans-69" d="M 603 3500 
L 1178 3500 
L 1178 0 
L 603 0 
L 603 3500 
z
M 603 4863 
L 1178 4863 
L 1178 4134 
L 603 4134 
L 603 4863 
z
" transform="scale(0.015625)"/>
      <path id="DejaVuSans-6c" d="M 603 4863 
L 1178 4863 
L 1178 0 
L 603 0 
L 603 4863 
z
" transform="scale(0.015625)"/>
      <path id="DejaVuSans-73" d="M 2834 3397 
L 2834 2853 
Q 2591 2978 2328 3040 
Q 2066 3103 1784 3103 
Q 1356 3103 1142 2972 
Q 928 2841 928 2578 
Q 928 2378 1081 2264 
Q 1234 2150 1697 2047 
L 1894 2003 
Q 2506 1872 2764 1633 
Q 3022 1394 3022 966 
Q 3022 478 2636 193 
Q 2250 -91 1575 -91 
Q 1294 -91 989 -36 
Q 684 19 347 128 
L 347 722 
Q 666 556 975 473 
Q 1284 391 1588 391 
Q 1994 391 2212 530 
Q 2431 669 2431 922 
Q 2431 1156 2273 1281 
Q 2116 1406 1581 1522 
L 1381 1569 
Q 847 1681 609 1914 
Q 372 2147 372 2553 
Q 372 3047 722 3315 
Q 1072 3584 1716 3584 
Q 2034 3584 2315 3537 
Q 2597 3491 2834 3397 
z
" transform="scale(0.015625)"/>
     </defs>
     <use xlink:href="#DejaVuSans-50"/>
     <use xlink:href="#DejaVuSans-65" x="56.677734"/>
     <use xlink:href="#DejaVuSans-72" x="118.201172"/>
     <use xlink:href="#DejaVuSans-66" x="159.314453"/>
     <use xlink:href="#DejaVuSans-6f" x="194.519531"/>
     <use xlink:href="#DejaVuSans-72" x="255.701172"/>
     <use xlink:href="#DejaVuSans-6d" x="295.064453"/>
     <use xlink:href="#DejaVuSans-61" x="392.476562"/>
     <use xlink:href="#DejaVuSans-6e" x="453.755859"/>
     <use xlink:href="#DejaVuSans-63" x="517.134766"/>
     <use xlink:href="#DejaVuSans-65" x="572.115234"/>
     <use xlink:href="#DejaVuSans-20" x="633.638672"/>
     <use xlink:href="#DejaVuSans-50" x="665.425781"/>
     <use xlink:href="#DejaVuSans-72" x="723.978516"/>
     <use xlink:href="#DejaVuSans-6f" x="762.841797"/>
     <use xlink:href="#DejaVuSans-66" x="824.023438"/>
     <use xlink:href="#DejaVuSans-69" x="859.228516"/>
     <use xlink:href="#DejaVuSans-6c" x="887.011719"/>
     <use xlink:href="#DejaVuSans-65" x="914.794922"/>
     <use xlink:href="#DejaVuSans-73" x="976.318359"/>
    </g>
   </g>
   <g id="legend_1">
    <g id="patch_7">
     <path d="M 552.327347 669.728 
L 699.183597 669.728 
Q 701.183597 669.728 701.183597 667.728 
L 701.183597 228.38425 
Q 701.183597 226.38425 699.183597 226.38425 
L 552.327347 226.38425 
Q 550.327347 226.38425 550.327347 228.38425 
L 550.327347 667.728 
Q 550.327347 669.728 552.327347 669.728 
z
" style="fill: #ffffff; opacity: 0.8; stroke: #cccccc; stroke-linejoin: miter"/>
    </g>
    <g id="line2d_48">
     <path d="M 554.327347 234.482687 
L 564.327347 234.482687 
L 574.327347 234.482687 
" style="fill: none; stroke: #1f77b4; stroke-width: 1.5; stroke-linecap: square"/>
    </g>
    <g id="text_12">
     <!-- RSC ABS 1e-05 0.01 -->
     <g transform="translate(582.327347 237.982687) scale(0.1 -0.1)">
      <defs>
       <path id="DejaVuSans-52" d="M 2841 2188 
Q 3044 2119 3236 1894 
Q 3428 1669 3622 1275 
L 4263 0 
L 3584 0 
L 2988 1197 
Q 2756 1666 2539 1819 
Q 2322 1972 1947 1972 
L 1259 1972 
L 1259 0 
L 628 0 
L 628 4666 
L 2053 4666 
Q 2853 4666 3247 4331 
Q 3641 3997 3641 3322 
Q 3641 2881 3436 2590 
Q 3231 2300 2841 2188 
z
M 1259 4147 
L 1259 2491 
L 2053 2491 
Q 2509 2491 2742 2702 
Q 2975 2913 2975 3322 
Q 2975 3731 2742 3939 
Q 2509 4147 2053 4147 
L 1259 4147 
z
" transform="scale(0.015625)"/>
       <path id="DejaVuSans-53" d="M 3425 4513 
L 3425 3897 
Q 3066 4069 2747 4153 
Q 2428 4238 2131 4238 
Q 1616 4238 1336 4038 
Q 1056 3838 1056 3469 
Q 1056 3159 1242 3001 
Q 1428 2844 1947 2747 
L 2328 2669 
Q 3034 2534 3370 2195 
Q 3706 1856 3706 1288 
Q 3706 609 3251 259 
Q 2797 -91 1919 -91 
Q 1588 -91 1214 -16 
Q 841 59 441 206 
L 441 856 
Q 825 641 1194 531 
Q 1563 422 1919 422 
Q 2459 422 2753 634 
Q 3047 847 3047 1241 
Q 3047 1584 2836 1778 
Q 2625 1972 2144 2069 
L 1759 2144 
Q 1053 2284 737 2584 
Q 422 2884 422 3419 
Q 422 4038 858 4394 
Q 1294 4750 2059 4750 
Q 2388 4750 2728 4690 
Q 3069 4631 3425 4513 
z
" transform="scale(0.015625)"/>
       <path id="DejaVuSans-43" d="M 4122 4306 
L 4122 3641 
Q 3803 3938 3442 4084 
Q 3081 4231 2675 4231 
Q 1875 4231 1450 3742 
Q 1025 3253 1025 2328 
Q 1025 1406 1450 917 
Q 1875 428 2675 428 
Q 3081 428 3442 575 
Q 3803 722 4122 1019 
L 4122 359 
Q 3791 134 3420 21 
Q 3050 -91 2638 -91 
Q 1578 -91 968 557 
Q 359 1206 359 2328 
Q 359 3453 968 4101 
Q 1578 4750 2638 4750 
Q 3056 4750 3426 4639 
Q 3797 4528 4122 4306 
z
" transform="scale(0.015625)"/>
       <path id="DejaVuSans-41" d="M 2188 4044 
L 1331 1722 
L 3047 1722 
L 2188 4044 
z
M 1831 4666 
L 2547 4666 
L 4325 0 
L 3669 0 
L 3244 1197 
L 1141 1197 
L 716 0 
L 50 0 
L 1831 4666 
z
" transform="scale(0.015625)"/>
       <path id="DejaVuSans-42" d="M 1259 2228 
L 1259 519 
L 2272 519 
Q 2781 519 3026 730 
Q 3272 941 3272 1375 
Q 3272 1813 3026 2020 
Q 2781 2228 2272 2228 
L 1259 2228 
z
M 1259 4147 
L 1259 2741 
L 2194 2741 
Q 2656 2741 2882 2914 
Q 3109 3088 3109 3444 
Q 3109 3797 2882 3972 
Q 2656 4147 2194 4147 
L 1259 4147 
z
M 628 4666 
L 2241 4666 
Q 2963 4666 3353 4366 
Q 3744 4066 3744 3513 
Q 3744 3084 3544 2831 
Q 3344 2578 2956 2516 
Q 3422 2416 3680 2098 
Q 3938 1781 3938 1306 
Q 3938 681 3513 340 
Q 3088 0 2303 0 
L 628 0 
L 628 4666 
z
" transform="scale(0.015625)"/>
       <path id="DejaVuSans-2d" d="M 313 2009 
L 1997 2009 
L 1997 1497 
L 313 1497 
L 313 2009 
z
" transform="scale(0.015625)"/>
       <path id="DejaVuSans-35" d="M 691 4666 
L 3169 4666 
L 3169 4134 
L 1269 4134 
L 1269 2991 
Q 1406 3038 1543 3061 
Q 1681 3084 1819 3084 
Q 2600 3084 3056 2656 
Q 3513 2228 3513 1497 
Q 3513 744 3044 326 
Q 2575 -91 1722 -91 
Q 1428 -91 1123 -41 
Q 819 9 494 109 
L 494 744 
Q 775 591 1075 516 
Q 1375 441 1709 441 
Q 2250 441 2565 725 
Q 2881 1009 2881 1497 
Q 2881 1984 2565 2268 
Q 2250 2553 1709 2553 
Q 1456 2553 1204 2497 
Q 953 2441 691 2322 
L 691 4666 
z
" transform="scale(0.015625)"/>
      </defs>
      <use xlink:href="#DejaVuSans-52"/>
      <use xlink:href="#DejaVuSans-53" x="69.482422"/>
      <use xlink:href="#DejaVuSans-43" x="132.958984"/>
      <use xlink:href="#DejaVuSans-20" x="202.783203"/>
      <use xlink:href="#DejaVuSans-41" x="234.570312"/>
      <use xlink:href="#DejaVuSans-42" x="302.978516"/>
      <use xlink:href="#DejaVuSans-53" x="369.832031"/>
      <use xlink:href="#DejaVuSans-20" x="433.308594"/>
      <use xlink:href="#DejaVuSans-31" x="465.095703"/>
      <use xlink:href="#DejaVuSans-65" x="528.71875"/>
      <use xlink:href="#DejaVuSans-2d" x="590.242188"/>
      <use xlink:href="#DejaVuSans-30" x="626.326172"/>
      <use xlink:href="#DejaVuSans-35" x="689.949219"/>
      <use xlink:href="#DejaVuSans-20" x="753.572266"/>
      <use xlink:href="#DejaVuSans-30" x="785.359375"/>
      <use xlink:href="#DejaVuSans-2e" x="848.982422"/>
      <use xlink:href="#DejaVuSans-30" x="880.769531"/>
      <use xlink:href="#DejaVuSans-31" x="944.392578"/>
     </g>
    </g>
    <g id="line2d_49">
     <path d="M 554.327347 249.160812 
L 564.327347 249.160812 
L 574.327347 249.160812 
" style="fill: none; stroke-dasharray: 1.5,2.475; stroke-dashoffset: 0; stroke: #ff7f0e; stroke-width: 1.5"/>
    </g>
    <g id="text_13">
     <!-- RSC ABS 0.001 0.01 -->
     <g transform="translate(582.327347 252.660812) scale(0.1 -0.1)">
      <use xlink:href="#DejaVuSans-52"/>
      <use xlink:href="#DejaVuSans-53" x="69.482422"/>
      <use xlink:href="#DejaVuSans-43" x="132.958984"/>
      <use xlink:href="#DejaVuSans-20" x="202.783203"/>
      <use xlink:href="#DejaVuSans-41" x="234.570312"/>
      <use xlink:href="#DejaVuSans-42" x="302.978516"/>
      <use xlink:href="#DejaVuSans-53" x="369.832031"/>
      <use xlink:href="#DejaVuSans-20" x="433.308594"/>
      <use xlink:href="#DejaVuSans-30" x="465.095703"/>
      <use xlink:href="#DejaVuSans-2e" x="528.71875"/>
      <use xlink:href="#DejaVuSans-30" x="560.505859"/>
      <use xlink:href="#DejaVuSans-30" x="624.128906"/>
      <use xlink:href="#DejaVuSans-31" x="687.751953"/>
      <use xlink:href="#DejaVuSans-20" x="751.375"/>
      <use xlink:href="#DejaVuSans-30" x="783.162109"/>
      <use xlink:href="#DejaVuSans-2e" x="846.785156"/>
      <use xlink:href="#DejaVuSans-30" x="878.572266"/>
      <use xlink:href="#DejaVuSans-31" x="942.195312"/>
     </g>
    </g>
    <g id="line2d_50">
     <path d="M 554.327347 263.838937 
L 564.327347 263.838937 
L 574.327347 263.838937 
" style="fill: none; stroke-dasharray: 5.55,2.4; stroke-dashoffset: 0; stroke: #2ca02c; stroke-width: 1.5"/>
    </g>
    <g id="text_14">
     <!-- RSC COS 1e-05 0.001 -->
     <g transform="translate(582.327347 267.338937) scale(0.1 -0.1)">
      <defs>
       <path id="DejaVuSans-4f" d="M 2522 4238 
Q 1834 4238 1429 3725 
Q 1025 3213 1025 2328 
Q 1025 1447 1429 934 
Q 1834 422 2522 422 
Q 3209 422 3611 934 
Q 4013 1447 4013 2328 
Q 4013 3213 3611 3725 
Q 3209 4238 2522 4238 
z
M 2522 4750 
Q 3503 4750 4090 4092 
Q 4678 3434 4678 2328 
Q 4678 1225 4090 567 
Q 3503 -91 2522 -91 
Q 1538 -91 948 565 
Q 359 1222 359 2328 
Q 359 3434 948 4092 
Q 1538 4750 2522 4750 
z
" transform="scale(0.015625)"/>
      </defs>
      <use xlink:href="#DejaVuSans-52"/>
      <use xlink:href="#DejaVuSans-53" x="69.482422"/>
      <use xlink:href="#DejaVuSans-43" x="132.958984"/>
      <use xlink:href="#DejaVuSans-20" x="202.783203"/>
      <use xlink:href="#DejaVuSans-43" x="234.570312"/>
      <use xlink:href="#DejaVuSans-4f" x="304.394531"/>
      <use xlink:href="#DejaVuSans-53" x="383.105469"/>
      <use xlink:href="#DejaVuSans-20" x="446.582031"/>
      <use xlink:href="#DejaVuSans-31" x="478.369141"/>
      <use xlink:href="#DejaVuSans-65" x="541.992188"/>
      <use xlink:href="#DejaVuSans-2d" x="603.515625"/>
      <use xlink:href="#DejaVuSans-30" x="639.599609"/>
      <use xlink:href="#DejaVuSans-35" x="703.222656"/>
      <use xlink:href="#DejaVuSans-20" x="766.845703"/>
      <use xlink:href="#DejaVuSans-30" x="798.632812"/>
      <use xlink:href="#DejaVuSans-2e" x="862.255859"/>
      <use xlink:href="#DejaVuSans-30" x="894.042969"/>
      <use xlink:href="#DejaVuSans-30" x="957.666016"/>
      <use xlink:href="#DejaVuSans-31" x="1021.289062"/>
     </g>
    </g>
    <g id="line2d_51">
     <path d="M 554.327347 278.517062 
L 564.327347 278.517062 
L 574.327347 278.517062 
" style="fill: none; stroke-dasharray: 9.6,2.4,1.5,2.4; stroke-dashoffset: 0; stroke: #d62728; stroke-width: 1.5"/>
    </g>
    <g id="text_15">
     <!-- RSC ABS 0.001 0.1 -->
     <g transform="translate(582.327347 282.017062) scale(0.1 -0.1)">
      <use xlink:href="#DejaVuSans-52"/>
      <use xlink:href="#DejaVuSans-53" x="69.482422"/>
      <use xlink:href="#DejaVuSans-43" x="132.958984"/>
      <use xlink:href="#DejaVuSans-20" x="202.783203"/>
      <use xlink:href="#DejaVuSans-41" x="234.570312"/>
      <use xlink:href="#DejaVuSans-42" x="302.978516"/>
      <use xlink:href="#DejaVuSans-53" x="369.832031"/>
      <use xlink:href="#DejaVuSans-20" x="433.308594"/>
      <use xlink:href="#DejaVuSans-30" x="465.095703"/>
      <use xlink:href="#DejaVuSans-2e" x="528.71875"/>
      <use xlink:href="#DejaVuSans-30" x="560.505859"/>
      <use xlink:href="#DejaVuSans-30" x="624.128906"/>
      <use xlink:href="#DejaVuSans-31" x="687.751953"/>
      <use xlink:href="#DejaVuSans-20" x="751.375"/>
      <use xlink:href="#DejaVuSans-30" x="783.162109"/>
      <use xlink:href="#DejaVuSans-2e" x="846.785156"/>
      <use xlink:href="#DejaVuSans-31" x="878.572266"/>
     </g>
    </g>
    <g id="line2d_52">
     <path d="M 554.327347 293.195187 
L 564.327347 293.195187 
L 574.327347 293.195187 
" style="fill: none; stroke-dasharray: 1.5,1.5; stroke-dashoffset: 0; stroke: #9467bd; stroke-width: 1.5"/>
    </g>
    <g id="text_16">
     <!-- RSC ABS 0.0 0.0001 -->
     <g transform="translate(582.327347 296.695187) scale(0.1 -0.1)">
      <use xlink:href="#DejaVuSans-52"/>
      <use xlink:href="#DejaVuSans-53" x="69.482422"/>
      <use xlink:href="#DejaVuSans-43" x="132.958984"/>
      <use xlink:href="#DejaVuSans-20" x="202.783203"/>
      <use xlink:href="#DejaVuSans-41" x="234.570312"/>
      <use xlink:href="#DejaVuSans-42" x="302.978516"/>
      <use xlink:href="#DejaVuSans-53" x="369.832031"/>
      <use xlink:href="#DejaVuSans-20" x="433.308594"/>
      <use xlink:href="#DejaVuSans-30" x="465.095703"/>
      <use xlink:href="#DejaVuSans-2e" x="528.71875"/>
      <use xlink:href="#DejaVuSans-30" x="560.505859"/>
      <use xlink:href="#DejaVuSans-20" x="624.128906"/>
      <use xlink:href="#DejaVuSans-30" x="655.916016"/>
      <use xlink:href="#DejaVuSans-2e" x="719.539062"/>
      <use xlink:href="#DejaVuSans-30" x="751.326172"/>
      <use xlink:href="#DejaVuSans-30" x="814.949219"/>
      <use xlink:href="#DejaVuSans-30" x="878.572266"/>
      <use xlink:href="#DejaVuSans-31" x="942.195312"/>
     </g>
    </g>
    <g id="line2d_53">
     <path d="M 554.327347 307.873312 
L 564.327347 307.873312 
L 574.327347 307.873312 
" style="fill: none; stroke-dasharray: 1.5,15; stroke-dashoffset: 0; stroke: #8c564b; stroke-width: 1.5"/>
    </g>
    <g id="text_17">
     <!-- RSC ABS 1e-05 0.1 -->
     <g transform="translate(582.327347 311.373312) scale(0.1 -0.1)">
      <use xlink:href="#DejaVuSans-52"/>
      <use xlink:href="#DejaVuSans-53" x="69.482422"/>
      <use xlink:href="#DejaVuSans-43" x="132.958984"/>
      <use xlink:href="#DejaVuSans-20" x="202.783203"/>
      <use xlink:href="#DejaVuSans-41" x="234.570312"/>
      <use xlink:href="#DejaVuSans-42" x="302.978516"/>
      <use xlink:href="#DejaVuSans-53" x="369.832031"/>
      <use xlink:href="#DejaVuSans-20" x="433.308594"/>
      <use xlink:href="#DejaVuSans-31" x="465.095703"/>
      <use xlink:href="#DejaVuSans-65" x="528.71875"/>
      <use xlink:href="#DejaVuSans-2d" x="590.242188"/>
      <use xlink:href="#DejaVuSans-30" x="626.326172"/>
      <use xlink:href="#DejaVuSans-35" x="689.949219"/>
      <use xlink:href="#DejaVuSans-20" x="753.572266"/>
      <use xlink:href="#DejaVuSans-30" x="785.359375"/>
      <use xlink:href="#DejaVuSans-2e" x="848.982422"/>
      <use xlink:href="#DejaVuSans-31" x="880.769531"/>
     </g>
    </g>
    <g id="line2d_54">
     <path d="M 554.327347 322.551437 
L 564.327347 322.551437 
L 574.327347 322.551437 
" style="fill: none; stroke-dasharray: 1.5,1.5; stroke-dashoffset: 0; stroke: #e377c2; stroke-width: 1.5"/>
    </g>
    <g id="text_18">
     <!-- RSC ABS 0.0001 0.1 -->
     <g transform="translate(582.327347 326.051437) scale(0.1 -0.1)">
      <use xlink:href="#DejaVuSans-52"/>
      <use xlink:href="#DejaVuSans-53" x="69.482422"/>
      <use xlink:href="#DejaVuSans-43" x="132.958984"/>
      <use xlink:href="#DejaVuSans-20" x="202.783203"/>
      <use xlink:href="#DejaVuSans-41" x="234.570312"/>
      <use xlink:href="#DejaVuSans-42" x="302.978516"/>
      <use xlink:href="#DejaVuSans-53" x="369.832031"/>
      <use xlink:href="#DejaVuSans-20" x="433.308594"/>
      <use xlink:href="#DejaVuSans-30" x="465.095703"/>
      <use xlink:href="#DejaVuSans-2e" x="528.71875"/>
      <use xlink:href="#DejaVuSans-30" x="560.505859"/>
      <use xlink:href="#DejaVuSans-30" x="624.128906"/>
      <use xlink:href="#DejaVuSans-30" x="687.751953"/>
      <use xlink:href="#DejaVuSans-31" x="751.375"/>
      <use xlink:href="#DejaVuSans-20" x="814.998047"/>
      <use xlink:href="#DejaVuSans-30" x="846.785156"/>
      <use xlink:href="#DejaVuSans-2e" x="910.408203"/>
      <use xlink:href="#DejaVuSans-31" x="942.195312"/>
     </g>
    </g>
    <g id="line2d_55">
     <path d="M 554.327347 337.229562 
L 564.327347 337.229562 
L 574.327347 337.229562 
" style="fill: none; stroke-dasharray: 15,4.5; stroke-dashoffset: 7.5; stroke: #7f7f7f; stroke-width: 1.5"/>
    </g>
    <g id="text_19">
     <!-- RSC ABS 1e-05 0.001 -->
     <g transform="translate(582.327347 340.729562) scale(0.1 -0.1)">
      <use xlink:href="#DejaVuSans-52"/>
      <use xlink:href="#DejaVuSans-53" x="69.482422"/>
      <use xlink:href="#DejaVuSans-43" x="132.958984"/>
      <use xlink:href="#DejaVuSans-20" x="202.783203"/>
      <use xlink:href="#DejaVuSans-41" x="234.570312"/>
      <use xlink:href="#DejaVuSans-42" x="302.978516"/>
      <use xlink:href="#DejaVuSans-53" x="369.832031"/>
      <use xlink:href="#DejaVuSans-20" x="433.308594"/>
      <use xlink:href="#DejaVuSans-31" x="465.095703"/>
      <use xlink:href="#DejaVuSans-65" x="528.71875"/>
      <use xlink:href="#DejaVuSans-2d" x="590.242188"/>
      <use xlink:href="#DejaVuSans-30" x="626.326172"/>
      <use xlink:href="#DejaVuSans-35" x="689.949219"/>
      <use xlink:href="#DejaVuSans-20" x="753.572266"/>
      <use xlink:href="#DejaVuSans-30" x="785.359375"/>
      <use xlink:href="#DejaVuSans-2e" x="848.982422"/>
      <use xlink:href="#DejaVuSans-30" x="880.769531"/>
      <use xlink:href="#DejaVuSans-30" x="944.392578"/>
      <use xlink:href="#DejaVuSans-31" x="1008.015625"/>
     </g>
    </g>
    <g id="line2d_56">
     <path d="M 554.327347 351.907687 
L 564.327347 351.907687 
L 574.327347 351.907687 
" style="fill: none; stroke-dasharray: 7.5,15; stroke-dashoffset: 0; stroke: #bcbd22; stroke-width: 1.5"/>
    </g>
    <g id="text_20">
     <!-- RSC ABS 1e-05 0.0001 -->
     <g transform="translate(582.327347 355.407687) scale(0.1 -0.1)">
      <use xlink:href="#DejaVuSans-52"/>
      <use xlink:href="#DejaVuSans-53" x="69.482422"/>
      <use xlink:href="#DejaVuSans-43" x="132.958984"/>
      <use xlink:href="#DejaVuSans-20" x="202.783203"/>
      <use xlink:href="#DejaVuSans-41" x="234.570312"/>
      <use xlink:href="#DejaVuSans-42" x="302.978516"/>
      <use xlink:href="#DejaVuSans-53" x="369.832031"/>
      <use xlink:href="#DejaVuSans-20" x="433.308594"/>
      <use xlink:href="#DejaVuSans-31" x="465.095703"/>
      <use xlink:href="#DejaVuSans-65" x="528.71875"/>
      <use xlink:href="#DejaVuSans-2d" x="590.242188"/>
      <use xlink:href="#DejaVuSans-30" x="626.326172"/>
      <use xlink:href="#DejaVuSans-35" x="689.949219"/>
      <use xlink:href="#DejaVuSans-20" x="753.572266"/>
      <use xlink:href="#DejaVuSans-30" x="785.359375"/>
      <use xlink:href="#DejaVuSans-2e" x="848.982422"/>
      <use xlink:href="#DejaVuSans-30" x="880.769531"/>
      <use xlink:href="#DejaVuSans-30" x="944.392578"/>
      <use xlink:href="#DejaVuSans-30" x="1008.015625"/>
      <use xlink:href="#DejaVuSans-31" x="1071.638672"/>
     </g>
    </g>
    <g id="line2d_57">
     <path d="M 554.327347 366.585812 
L 564.327347 366.585812 
L 574.327347 366.585812 
" style="fill: none; stroke-dasharray: 7.5,7.5; stroke-dashoffset: 0; stroke: #17becf; stroke-width: 1.5"/>
    </g>
    <g id="text_21">
     <!-- RSC COS 1e-05 0.01 -->
     <g transform="translate(582.327347 370.085812) scale(0.1 -0.1)">
      <use xlink:href="#DejaVuSans-52"/>
      <use xlink:href="#DejaVuSans-53" x="69.482422"/>
      <use xlink:href="#DejaVuSans-43" x="132.958984"/>
      <use xlink:href="#DejaVuSans-20" x="202.783203"/>
      <use xlink:href="#DejaVuSans-43" x="234.570312"/>
      <use xlink:href="#DejaVuSans-4f" x="304.394531"/>
      <use xlink:href="#DejaVuSans-53" x="383.105469"/>
      <use xlink:href="#DejaVuSans-20" x="446.582031"/>
      <use xlink:href="#DejaVuSans-31" x="478.369141"/>
      <use xlink:href="#DejaVuSans-65" x="541.992188"/>
      <use xlink:href="#DejaVuSans-2d" x="603.515625"/>
      <use xlink:href="#DejaVuSans-30" x="639.599609"/>
      <use xlink:href="#DejaVuSans-35" x="703.222656"/>
      <use xlink:href="#DejaVuSans-20" x="766.845703"/>
      <use xlink:href="#DejaVuSans-30" x="798.632812"/>
      <use xlink:href="#DejaVuSans-2e" x="862.255859"/>
      <use xlink:href="#DejaVuSans-30" x="894.042969"/>
      <use xlink:href="#DejaVuSans-31" x="957.666016"/>
     </g>
    </g>
    <g id="line2d_58">
     <path d="M 554.327347 381.263937 
L 564.327347 381.263937 
L 574.327347 381.263937 
" style="fill: none; stroke-dasharray: 7.5,1.5; stroke-dashoffset: 0; stroke: #1f77b4; stroke-width: 1.5"/>
    </g>
    <g id="text_22">
     <!-- RSC COS 0.0 0.0001 -->
     <g transform="translate(582.327347 384.763937) scale(0.1 -0.1)">
      <use xlink:href="#DejaVuSans-52"/>
      <use xlink:href="#DejaVuSans-53" x="69.482422"/>
      <use xlink:href="#DejaVuSans-43" x="132.958984"/>
      <use xlink:href="#DejaVuSans-20" x="202.783203"/>
      <use xlink:href="#DejaVuSans-43" x="234.570312"/>
      <use xlink:href="#DejaVuSans-4f" x="304.394531"/>
      <use xlink:href="#DejaVuSans-53" x="383.105469"/>
      <use xlink:href="#DejaVuSans-20" x="446.582031"/>
      <use xlink:href="#DejaVuSans-30" x="478.369141"/>
      <use xlink:href="#DejaVuSans-2e" x="541.992188"/>
      <use xlink:href="#DejaVuSans-30" x="573.779297"/>
      <use xlink:href="#DejaVuSans-20" x="637.402344"/>
      <use xlink:href="#DejaVuSans-30" x="669.189453"/>
      <use xlink:href="#DejaVuSans-2e" x="732.8125"/>
      <use xlink:href="#DejaVuSans-30" x="764.599609"/>
      <use xlink:href="#DejaVuSans-30" x="828.222656"/>
      <use xlink:href="#DejaVuSans-30" x="891.845703"/>
      <use xlink:href="#DejaVuSans-31" x="955.46875"/>
     </g>
    </g>
    <g id="line2d_59">
     <path d="M 554.327347 395.942062 
L 564.327347 395.942062 
L 574.327347 395.942062 
" style="fill: none; stroke-dasharray: 4.5,15,1.5,15; stroke-dashoffset: 0; stroke: #ff7f0e; stroke-width: 1.5"/>
    </g>
    <g id="text_23">
     <!-- RSC COS 1e-05 0.0001 -->
     <g transform="translate(582.327347 399.442062) scale(0.1 -0.1)">
      <use xlink:href="#DejaVuSans-52"/>
      <use xlink:href="#DejaVuSans-53" x="69.482422"/>
      <use xlink:href="#DejaVuSans-43" x="132.958984"/>
      <use xlink:href="#DejaVuSans-20" x="202.783203"/>
      <use xlink:href="#DejaVuSans-43" x="234.570312"/>
      <use xlink:href="#DejaVuSans-4f" x="304.394531"/>
      <use xlink:href="#DejaVuSans-53" x="383.105469"/>
      <use xlink:href="#DejaVuSans-20" x="446.582031"/>
      <use xlink:href="#DejaVuSans-31" x="478.369141"/>
      <use xlink:href="#DejaVuSans-65" x="541.992188"/>
      <use xlink:href="#DejaVuSans-2d" x="603.515625"/>
      <use xlink:href="#DejaVuSans-30" x="639.599609"/>
      <use xlink:href="#DejaVuSans-35" x="703.222656"/>
      <use xlink:href="#DejaVuSans-20" x="766.845703"/>
      <use xlink:href="#DejaVuSans-30" x="798.632812"/>
      <use xlink:href="#DejaVuSans-2e" x="862.255859"/>
      <use xlink:href="#DejaVuSans-30" x="894.042969"/>
      <use xlink:href="#DejaVuSans-30" x="957.666016"/>
      <use xlink:href="#DejaVuSans-30" x="1021.289062"/>
      <use xlink:href="#DejaVuSans-31" x="1084.912109"/>
     </g>
    </g>
    <g id="line2d_60">
     <path d="M 554.327347 410.620187 
L 564.327347 410.620187 
L 574.327347 410.620187 
" style="fill: none; stroke-dasharray: 4.5,7.5,1.5,7.5; stroke-dashoffset: 0; stroke: #2ca02c; stroke-width: 1.5"/>
    </g>
    <g id="text_24">
     <!-- RSC ABS 0.0001 0.01 -->
     <g transform="translate(582.327347 414.120187) scale(0.1 -0.1)">
      <use xlink:href="#DejaVuSans-52"/>
      <use xlink:href="#DejaVuSans-53" x="69.482422"/>
      <use xlink:href="#DejaVuSans-43" x="132.958984"/>
      <use xlink:href="#DejaVuSans-20" x="202.783203"/>
      <use xlink:href="#DejaVuSans-41" x="234.570312"/>
      <use xlink:href="#DejaVuSans-42" x="302.978516"/>
      <use xlink:href="#DejaVuSans-53" x="369.832031"/>
      <use xlink:href="#DejaVuSans-20" x="433.308594"/>
      <use xlink:href="#DejaVuSans-30" x="465.095703"/>
      <use xlink:href="#DejaVuSans-2e" x="528.71875"/>
      <use xlink:href="#DejaVuSans-30" x="560.505859"/>
      <use xlink:href="#DejaVuSans-30" x="624.128906"/>
      <use xlink:href="#DejaVuSans-30" x="687.751953"/>
      <use xlink:href="#DejaVuSans-31" x="751.375"/>
      <use xlink:href="#DejaVuSans-20" x="814.998047"/>
      <use xlink:href="#DejaVuSans-30" x="846.785156"/>
      <use xlink:href="#DejaVuSans-2e" x="910.408203"/>
      <use xlink:href="#DejaVuSans-30" x="942.195312"/>
      <use xlink:href="#DejaVuSans-31" x="1005.818359"/>
     </g>
    </g>
    <g id="line2d_61">
     <path d="M 554.327347 425.298312 
L 564.327347 425.298312 
L 574.327347 425.298312 
" style="fill: none; stroke-dasharray: 4.5,1.5,1.5,1.5; stroke-dashoffset: 0; stroke: #d62728; stroke-width: 1.5"/>
    </g>
    <g id="text_25">
     <!-- RSC ABS 0.0001 0.001 -->
     <g transform="translate(582.327347 428.798312) scale(0.1 -0.1)">
      <use xlink:href="#DejaVuSans-52"/>
      <use xlink:href="#DejaVuSans-53" x="69.482422"/>
      <use xlink:href="#DejaVuSans-43" x="132.958984"/>
      <use xlink:href="#DejaVuSans-20" x="202.783203"/>
      <use xlink:href="#DejaVuSans-41" x="234.570312"/>
      <use xlink:href="#DejaVuSans-42" x="302.978516"/>
      <use xlink:href="#DejaVuSans-53" x="369.832031"/>
      <use xlink:href="#DejaVuSans-20" x="433.308594"/>
      <use xlink:href="#DejaVuSans-30" x="465.095703"/>
      <use xlink:href="#DejaVuSans-2e" x="528.71875"/>
      <use xlink:href="#DejaVuSans-30" x="560.505859"/>
      <use xlink:href="#DejaVuSans-30" x="624.128906"/>
      <use xlink:href="#DejaVuSans-30" x="687.751953"/>
      <use xlink:href="#DejaVuSans-31" x="751.375"/>
      <use xlink:href="#DejaVuSans-20" x="814.998047"/>
      <use xlink:href="#DejaVuSans-30" x="846.785156"/>
      <use xlink:href="#DejaVuSans-2e" x="910.408203"/>
      <use xlink:href="#DejaVuSans-30" x="942.195312"/>
      <use xlink:href="#DejaVuSans-30" x="1005.818359"/>
      <use xlink:href="#DejaVuSans-31" x="1069.441406"/>
     </g>
    </g>
    <g id="line2d_62">
     <path d="M 554.327347 439.976437 
L 564.327347 439.976437 
L 574.327347 439.976437 
" style="fill: none; stroke-dasharray: 4.5,7.5,1.5,7.5,1.5,7.5; stroke-dashoffset: 0; stroke: #9467bd; stroke-width: 1.5"/>
    </g>
    <g id="text_26">
     <!-- RSC COS 0.0 0.1 -->
     <g transform="translate(582.327347 443.476437) scale(0.1 -0.1)">
      <use xlink:href="#DejaVuSans-52"/>
      <use xlink:href="#DejaVuSans-53" x="69.482422"/>
      <use xlink:href="#DejaVuSans-43" x="132.958984"/>
      <use xlink:href="#DejaVuSans-20" x="202.783203"/>
      <use xlink:href="#DejaVuSans-43" x="234.570312"/>
      <use xlink:href="#DejaVuSans-4f" x="304.394531"/>
      <use xlink:href="#DejaVuSans-53" x="383.105469"/>
      <use xlink:href="#DejaVuSans-20" x="446.582031"/>
      <use xlink:href="#DejaVuSans-30" x="478.369141"/>
      <use xlink:href="#DejaVuSans-2e" x="541.992188"/>
      <use xlink:href="#DejaVuSans-30" x="573.779297"/>
      <use xlink:href="#DejaVuSans-20" x="637.402344"/>
      <use xlink:href="#DejaVuSans-30" x="669.189453"/>
      <use xlink:href="#DejaVuSans-2e" x="732.8125"/>
      <use xlink:href="#DejaVuSans-31" x="764.599609"/>
     </g>
    </g>
    <g id="line2d_63">
     <path d="M 554.327347 454.654562 
L 564.327347 454.654562 
L 574.327347 454.654562 
" style="fill: none; stroke-dasharray: 4.5,15,1.5,15,1.5,15; stroke-dashoffset: 0; stroke: #8c564b; stroke-width: 1.5"/>
    </g>
    <g id="text_27">
     <!-- RSC COS 0.0 0.01 -->
     <g transform="translate(582.327347 458.154562) scale(0.1 -0.1)">
      <use xlink:href="#DejaVuSans-52"/>
      <use xlink:href="#DejaVuSans-53" x="69.482422"/>
      <use xlink:href="#DejaVuSans-43" x="132.958984"/>
      <use xlink:href="#DejaVuSans-20" x="202.783203"/>
      <use xlink:href="#DejaVuSans-43" x="234.570312"/>
      <use xlink:href="#DejaVuSans-4f" x="304.394531"/>
      <use xlink:href="#DejaVuSans-53" x="383.105469"/>
      <use xlink:href="#DejaVuSans-20" x="446.582031"/>
      <use xlink:href="#DejaVuSans-30" x="478.369141"/>
      <use xlink:href="#DejaVuSans-2e" x="541.992188"/>
      <use xlink:href="#DejaVuSans-30" x="573.779297"/>
      <use xlink:href="#DejaVuSans-20" x="637.402344"/>
      <use xlink:href="#DejaVuSans-30" x="669.189453"/>
      <use xlink:href="#DejaVuSans-2e" x="732.8125"/>
      <use xlink:href="#DejaVuSans-30" x="764.599609"/>
      <use xlink:href="#DejaVuSans-31" x="828.222656"/>
     </g>
    </g>
    <g id="line2d_64">
     <path d="M 554.327347 469.332687 
L 564.327347 469.332687 
L 574.327347 469.332687 
" style="fill: none; stroke-dasharray: 4.5,1.5,1.5,1.5,1.5,1.5; stroke-dashoffset: 0; stroke: #e377c2; stroke-width: 1.5"/>
    </g>
    <g id="text_28">
     <!-- RSC COS 0.0001 0.001 -->
     <g transform="translate(582.327347 472.832687) scale(0.1 -0.1)">
      <use xlink:href="#DejaVuSans-52"/>
      <use xlink:href="#DejaVuSans-53" x="69.482422"/>
      <use xlink:href="#DejaVuSans-43" x="132.958984"/>
      <use xlink:href="#DejaVuSans-20" x="202.783203"/>
      <use xlink:href="#DejaVuSans-43" x="234.570312"/>
      <use xlink:href="#DejaVuSans-4f" x="304.394531"/>
      <use xlink:href="#DejaVuSans-53" x="383.105469"/>
      <use xlink:href="#DejaVuSans-20" x="446.582031"/>
      <use xlink:href="#DejaVuSans-30" x="478.369141"/>
      <use xlink:href="#DejaVuSans-2e" x="541.992188"/>
      <use xlink:href="#DejaVuSans-30" x="573.779297"/>
      <use xlink:href="#DejaVuSans-30" x="637.402344"/>
      <use xlink:href="#DejaVuSans-30" x="701.025391"/>
      <use xlink:href="#DejaVuSans-31" x="764.648438"/>
      <use xlink:href="#DejaVuSans-20" x="828.271484"/>
      <use xlink:href="#DejaVuSans-30" x="860.058594"/>
      <use xlink:href="#DejaVuSans-2e" x="923.681641"/>
      <use xlink:href="#DejaVuSans-30" x="955.46875"/>
      <use xlink:href="#DejaVuSans-30" x="1019.091797"/>
      <use xlink:href="#DejaVuSans-31" x="1082.714844"/>
     </g>
    </g>
    <g id="line2d_65">
     <path d="M 554.327347 484.010812 
L 564.327347 484.010812 
L 574.327347 484.010812 
" style="fill: none; stroke: #7f7f7f; stroke-width: 1.5; stroke-linecap: square"/>
    </g>
    <g id="text_29">
     <!-- RSC ABS 0.01 0.1 -->
     <g transform="translate(582.327347 487.510812) scale(0.1 -0.1)">
      <use xlink:href="#DejaVuSans-52"/>
      <use xlink:href="#DejaVuSans-53" x="69.482422"/>
      <use xlink:href="#DejaVuSans-43" x="132.958984"/>
      <use xlink:href="#DejaVuSans-20" x="202.783203"/>
      <use xlink:href="#DejaVuSans-41" x="234.570312"/>
      <use xlink:href="#DejaVuSans-42" x="302.978516"/>
      <use xlink:href="#DejaVuSans-53" x="369.832031"/>
      <use xlink:href="#DejaVuSans-20" x="433.308594"/>
      <use xlink:href="#DejaVuSans-30" x="465.095703"/>
      <use xlink:href="#DejaVuSans-2e" x="528.71875"/>
      <use xlink:href="#DejaVuSans-30" x="560.505859"/>
      <use xlink:href="#DejaVuSans-31" x="624.128906"/>
      <use xlink:href="#DejaVuSans-20" x="687.751953"/>
      <use xlink:href="#DejaVuSans-30" x="719.539062"/>
      <use xlink:href="#DejaVuSans-2e" x="783.162109"/>
      <use xlink:href="#DejaVuSans-31" x="814.949219"/>
     </g>
    </g>
    <g id="line2d_66">
     <path d="M 554.327347 498.688937 
L 564.327347 498.688937 
L 574.327347 498.688937 
" style="fill: none; stroke-dasharray: 1.5,2.475; stroke-dashoffset: 0; stroke: #bcbd22; stroke-width: 1.5"/>
    </g>
    <g id="text_30">
     <!-- RSC COS 0.0 1e-05 -->
     <g transform="translate(582.327347 502.188937) scale(0.1 -0.1)">
      <use xlink:href="#DejaVuSans-52"/>
      <use xlink:href="#DejaVuSans-53" x="69.482422"/>
      <use xlink:href="#DejaVuSans-43" x="132.958984"/>
      <use xlink:href="#DejaVuSans-20" x="202.783203"/>
      <use xlink:href="#DejaVuSans-43" x="234.570312"/>
      <use xlink:href="#DejaVuSans-4f" x="304.394531"/>
      <use xlink:href="#DejaVuSans-53" x="383.105469"/>
      <use xlink:href="#DejaVuSans-20" x="446.582031"/>
      <use xlink:href="#DejaVuSans-30" x="478.369141"/>
      <use xlink:href="#DejaVuSans-2e" x="541.992188"/>
      <use xlink:href="#DejaVuSans-30" x="573.779297"/>
      <use xlink:href="#DejaVuSans-20" x="637.402344"/>
      <use xlink:href="#DejaVuSans-31" x="669.189453"/>
      <use xlink:href="#DejaVuSans-65" x="732.8125"/>
      <use xlink:href="#DejaVuSans-2d" x="794.335938"/>
      <use xlink:href="#DejaVuSans-30" x="830.419922"/>
      <use xlink:href="#DejaVuSans-35" x="894.042969"/>
     </g>
    </g>
    <g id="line2d_67">
     <path d="M 554.327347 513.367062 
L 564.327347 513.367062 
L 574.327347 513.367062 
" style="fill: none; stroke-dasharray: 5.55,2.4; stroke-dashoffset: 0; stroke: #17becf; stroke-width: 1.5"/>
    </g>
    <g id="text_31">
     <!-- RSC ABS 0.0 0.001 -->
     <g transform="translate(582.327347 516.867062) scale(0.1 -0.1)">
      <use xlink:href="#DejaVuSans-52"/>
      <use xlink:href="#DejaVuSans-53" x="69.482422"/>
      <use xlink:href="#DejaVuSans-43" x="132.958984"/>
      <use xlink:href="#DejaVuSans-20" x="202.783203"/>
      <use xlink:href="#DejaVuSans-41" x="234.570312"/>
      <use xlink:href="#DejaVuSans-42" x="302.978516"/>
      <use xlink:href="#DejaVuSans-53" x="369.832031"/>
      <use xlink:href="#DejaVuSans-20" x="433.308594"/>
      <use xlink:href="#DejaVuSans-30" x="465.095703"/>
      <use xlink:href="#DejaVuSans-2e" x="528.71875"/>
      <use xlink:href="#DejaVuSans-30" x="560.505859"/>
      <use xlink:href="#DejaVuSans-20" x="624.128906"/>
      <use xlink:href="#DejaVuSans-30" x="655.916016"/>
      <use xlink:href="#DejaVuSans-2e" x="719.539062"/>
      <use xlink:href="#DejaVuSans-30" x="751.326172"/>
      <use xlink:href="#DejaVuSans-30" x="814.949219"/>
      <use xlink:href="#DejaVuSans-31" x="878.572266"/>
     </g>
    </g>
    <g id="line2d_68">
     <path d="M 554.327347 528.045187 
L 564.327347 528.045187 
L 574.327347 528.045187 
" style="fill: none; stroke-dasharray: 9.6,2.4,1.5,2.4; stroke-dashoffset: 0; stroke: #1f77b4; stroke-width: 1.5"/>
    </g>
    <g id="text_32">
     <!-- RSC ABS 0.0 0.01 -->
     <g transform="translate(582.327347 531.545187) scale(0.1 -0.1)">
      <use xlink:href="#DejaVuSans-52"/>
      <use xlink:href="#DejaVuSans-53" x="69.482422"/>
      <use xlink:href="#DejaVuSans-43" x="132.958984"/>
      <use xlink:href="#DejaVuSans-20" x="202.783203"/>
      <use xlink:href="#DejaVuSans-41" x="234.570312"/>
      <use xlink:href="#DejaVuSans-42" x="302.978516"/>
      <use xlink:href="#DejaVuSans-53" x="369.832031"/>
      <use xlink:href="#DejaVuSans-20" x="433.308594"/>
      <use xlink:href="#DejaVuSans-30" x="465.095703"/>
      <use xlink:href="#DejaVuSans-2e" x="528.71875"/>
      <use xlink:href="#DejaVuSans-30" x="560.505859"/>
      <use xlink:href="#DejaVuSans-20" x="624.128906"/>
      <use xlink:href="#DejaVuSans-30" x="655.916016"/>
      <use xlink:href="#DejaVuSans-2e" x="719.539062"/>
      <use xlink:href="#DejaVuSans-30" x="751.326172"/>
      <use xlink:href="#DejaVuSans-31" x="814.949219"/>
     </g>
    </g>
    <g id="line2d_69">
     <path d="M 554.327347 542.723312 
L 564.327347 542.723312 
L 574.327347 542.723312 
" style="fill: none; stroke-dasharray: 1.5,1.5; stroke-dashoffset: 0; stroke: #ff7f0e; stroke-width: 1.5"/>
    </g>
    <g id="text_33">
     <!-- RSC COS 1e-05 0.1 -->
     <g transform="translate(582.327347 546.223312) scale(0.1 -0.1)">
      <use xlink:href="#DejaVuSans-52"/>
      <use xlink:href="#DejaVuSans-53" x="69.482422"/>
      <use xlink:href="#DejaVuSans-43" x="132.958984"/>
      <use xlink:href="#DejaVuSans-20" x="202.783203"/>
      <use xlink:href="#DejaVuSans-43" x="234.570312"/>
      <use xlink:href="#DejaVuSans-4f" x="304.394531"/>
      <use xlink:href="#DejaVuSans-53" x="383.105469"/>
      <use xlink:href="#DejaVuSans-20" x="446.582031"/>
      <use xlink:href="#DejaVuSans-31" x="478.369141"/>
      <use xlink:href="#DejaVuSans-65" x="541.992188"/>
      <use xlink:href="#DejaVuSans-2d" x="603.515625"/>
      <use xlink:href="#DejaVuSans-30" x="639.599609"/>
      <use xlink:href="#DejaVuSans-35" x="703.222656"/>
      <use xlink:href="#DejaVuSans-20" x="766.845703"/>
      <use xlink:href="#DejaVuSans-30" x="798.632812"/>
      <use xlink:href="#DejaVuSans-2e" x="862.255859"/>
      <use xlink:href="#DejaVuSans-31" x="894.042969"/>
     </g>
    </g>
    <g id="line2d_70">
     <path d="M 554.327347 557.401437 
L 564.327347 557.401437 
L 574.327347 557.401437 
" style="fill: none; stroke-dasharray: 1.5,15; stroke-dashoffset: 0; stroke: #2ca02c; stroke-width: 1.5"/>
    </g>
    <g id="text_34">
     <!-- RSC COS 0.0 0.001 -->
     <g transform="translate(582.327347 560.901437) scale(0.1 -0.1)">
      <use xlink:href="#DejaVuSans-52"/>
      <use xlink:href="#DejaVuSans-53" x="69.482422"/>
      <use xlink:href="#DejaVuSans-43" x="132.958984"/>
      <use xlink:href="#DejaVuSans-20" x="202.783203"/>
      <use xlink:href="#DejaVuSans-43" x="234.570312"/>
      <use xlink:href="#DejaVuSans-4f" x="304.394531"/>
      <use xlink:href="#DejaVuSans-53" x="383.105469"/>
      <use xlink:href="#DejaVuSans-20" x="446.582031"/>
      <use xlink:href="#DejaVuSans-30" x="478.369141"/>
      <use xlink:href="#DejaVuSans-2e" x="541.992188"/>
      <use xlink:href="#DejaVuSans-30" x="573.779297"/>
      <use xlink:href="#DejaVuSans-20" x="637.402344"/>
      <use xlink:href="#DejaVuSans-30" x="669.189453"/>
      <use xlink:href="#DejaVuSans-2e" x="732.8125"/>
      <use xlink:href="#DejaVuSans-30" x="764.599609"/>
      <use xlink:href="#DejaVuSans-30" x="828.222656"/>
      <use xlink:href="#DejaVuSans-31" x="891.845703"/>
     </g>
    </g>
    <g id="line2d_71">
     <path d="M 554.327347 572.079562 
L 564.327347 572.079562 
L 574.327347 572.079562 
" style="fill: none; stroke-dasharray: 1.5,1.5; stroke-dashoffset: 0; stroke: #d62728; stroke-width: 1.5"/>
    </g>
    <g id="text_35">
     <!-- RSC ABS 0.0 0.1 -->
     <g transform="translate(582.327347 575.579562) scale(0.1 -0.1)">
      <use xlink:href="#DejaVuSans-52"/>
      <use xlink:href="#DejaVuSans-53" x="69.482422"/>
      <use xlink:href="#DejaVuSans-43" x="132.958984"/>
      <use xlink:href="#DejaVuSans-20" x="202.783203"/>
      <use xlink:href="#DejaVuSans-41" x="234.570312"/>
      <use xlink:href="#DejaVuSans-42" x="302.978516"/>
      <use xlink:href="#DejaVuSans-53" x="369.832031"/>
      <use xlink:href="#DejaVuSans-20" x="433.308594"/>
      <use xlink:href="#DejaVuSans-30" x="465.095703"/>
      <use xlink:href="#DejaVuSans-2e" x="528.71875"/>
      <use xlink:href="#DejaVuSans-30" x="560.505859"/>
      <use xlink:href="#DejaVuSans-20" x="624.128906"/>
      <use xlink:href="#DejaVuSans-30" x="655.916016"/>
      <use xlink:href="#DejaVuSans-2e" x="719.539062"/>
      <use xlink:href="#DejaVuSans-31" x="751.326172"/>
     </g>
    </g>
    <g id="line2d_72">
     <path d="M 554.327347 586.757687 
L 564.327347 586.757687 
L 574.327347 586.757687 
" style="fill: none; stroke-dasharray: 15,4.5; stroke-dashoffset: 7.5; stroke: #9467bd; stroke-width: 1.5"/>
    </g>
    <g id="text_36">
     <!-- RSC COS 0.001 0.01 -->
     <g transform="translate(582.327347 590.257687) scale(0.1 -0.1)">
      <use xlink:href="#DejaVuSans-52"/>
      <use xlink:href="#DejaVuSans-53" x="69.482422"/>
      <use xlink:href="#DejaVuSans-43" x="132.958984"/>
      <use xlink:href="#DejaVuSans-20" x="202.783203"/>
      <use xlink:href="#DejaVuSans-43" x="234.570312"/>
      <use xlink:href="#DejaVuSans-4f" x="304.394531"/>
      <use xlink:href="#DejaVuSans-53" x="383.105469"/>
      <use xlink:href="#DejaVuSans-20" x="446.582031"/>
      <use xlink:href="#DejaVuSans-30" x="478.369141"/>
      <use xlink:href="#DejaVuSans-2e" x="541.992188"/>
      <use xlink:href="#DejaVuSans-30" x="573.779297"/>
      <use xlink:href="#DejaVuSans-30" x="637.402344"/>
      <use xlink:href="#DejaVuSans-31" x="701.025391"/>
      <use xlink:href="#DejaVuSans-20" x="764.648438"/>
      <use xlink:href="#DejaVuSans-30" x="796.435547"/>
      <use xlink:href="#DejaVuSans-2e" x="860.058594"/>
      <use xlink:href="#DejaVuSans-30" x="891.845703"/>
      <use xlink:href="#DejaVuSans-31" x="955.46875"/>
     </g>
    </g>
    <g id="line2d_73">
     <path d="M 554.327347 601.435812 
L 564.327347 601.435812 
L 574.327347 601.435812 
" style="fill: none; stroke-dasharray: 7.5,15; stroke-dashoffset: 0; stroke: #8c564b; stroke-width: 1.5"/>
    </g>
    <g id="text_37">
     <!-- RSC COS 0.0001 0.1 -->
     <g transform="translate(582.327347 604.935812) scale(0.1 -0.1)">
      <use xlink:href="#DejaVuSans-52"/>
      <use xlink:href="#DejaVuSans-53" x="69.482422"/>
      <use xlink:href="#DejaVuSans-43" x="132.958984"/>
      <use xlink:href="#DejaVuSans-20" x="202.783203"/>
      <use xlink:href="#DejaVuSans-43" x="234.570312"/>
      <use xlink:href="#DejaVuSans-4f" x="304.394531"/>
      <use xlink:href="#DejaVuSans-53" x="383.105469"/>
      <use xlink:href="#DejaVuSans-20" x="446.582031"/>
      <use xlink:href="#DejaVuSans-30" x="478.369141"/>
      <use xlink:href="#DejaVuSans-2e" x="541.992188"/>
      <use xlink:href="#DejaVuSans-30" x="573.779297"/>
      <use xlink:href="#DejaVuSans-30" x="637.402344"/>
      <use xlink:href="#DejaVuSans-30" x="701.025391"/>
      <use xlink:href="#DejaVuSans-31" x="764.648438"/>
      <use xlink:href="#DejaVuSans-20" x="828.271484"/>
      <use xlink:href="#DejaVuSans-30" x="860.058594"/>
      <use xlink:href="#DejaVuSans-2e" x="923.681641"/>
      <use xlink:href="#DejaVuSans-31" x="955.46875"/>
     </g>
    </g>
    <g id="line2d_74">
     <path d="M 554.327347 616.113937 
L 564.327347 616.113937 
L 574.327347 616.113937 
" style="fill: none; stroke-dasharray: 7.5,7.5; stroke-dashoffset: 0; stroke: #e377c2; stroke-width: 1.5"/>
    </g>
    <g id="text_38">
     <!-- RSC ABS 0.0 1e-05 -->
     <g transform="translate(582.327347 619.613937) scale(0.1 -0.1)">
      <use xlink:href="#DejaVuSans-52"/>
      <use xlink:href="#DejaVuSans-53" x="69.482422"/>
      <use xlink:href="#DejaVuSans-43" x="132.958984"/>
      <use xlink:href="#DejaVuSans-20" x="202.783203"/>
      <use xlink:href="#DejaVuSans-41" x="234.570312"/>
      <use xlink:href="#DejaVuSans-42" x="302.978516"/>
      <use xlink:href="#DejaVuSans-53" x="369.832031"/>
      <use xlink:href="#DejaVuSans-20" x="433.308594"/>
      <use xlink:href="#DejaVuSans-30" x="465.095703"/>
      <use xlink:href="#DejaVuSans-2e" x="528.71875"/>
      <use xlink:href="#DejaVuSans-30" x="560.505859"/>
      <use xlink:href="#DejaVuSans-20" x="624.128906"/>
      <use xlink:href="#DejaVuSans-31" x="655.916016"/>
      <use xlink:href="#DejaVuSans-65" x="719.539062"/>
      <use xlink:href="#DejaVuSans-2d" x="781.0625"/>
      <use xlink:href="#DejaVuSans-30" x="817.146484"/>
      <use xlink:href="#DejaVuSans-35" x="880.769531"/>
     </g>
    </g>
    <g id="line2d_75">
     <path d="M 554.327347 630.792062 
L 564.327347 630.792062 
L 574.327347 630.792062 
" style="fill: none; stroke-dasharray: 7.5,1.5; stroke-dashoffset: 0; stroke: #7f7f7f; stroke-width: 1.5"/>
    </g>
    <g id="text_39">
     <!-- RSC COS 0.001 0.1 -->
     <g transform="translate(582.327347 634.292062) scale(0.1 -0.1)">
      <use xlink:href="#DejaVuSans-52"/>
      <use xlink:href="#DejaVuSans-53" x="69.482422"/>
      <use xlink:href="#DejaVuSans-43" x="132.958984"/>
      <use xlink:href="#DejaVuSans-20" x="202.783203"/>
      <use xlink:href="#DejaVuSans-43" x="234.570312"/>
      <use xlink:href="#DejaVuSans-4f" x="304.394531"/>
      <use xlink:href="#DejaVuSans-53" x="383.105469"/>
      <use xlink:href="#DejaVuSans-20" x="446.582031"/>
      <use xlink:href="#DejaVuSans-30" x="478.369141"/>
      <use xlink:href="#DejaVuSans-2e" x="541.992188"/>
      <use xlink:href="#DejaVuSans-30" x="573.779297"/>
      <use xlink:href="#DejaVuSans-30" x="637.402344"/>
      <use xlink:href="#DejaVuSans-31" x="701.025391"/>
      <use xlink:href="#DejaVuSans-20" x="764.648438"/>
      <use xlink:href="#DejaVuSans-30" x="796.435547"/>
      <use xlink:href="#DejaVuSans-2e" x="860.058594"/>
      <use xlink:href="#DejaVuSans-31" x="891.845703"/>
     </g>
    </g>
    <g id="line2d_76">
     <path d="M 554.327347 645.470187 
L 564.327347 645.470187 
L 574.327347 645.470187 
" style="fill: none; stroke-dasharray: 4.5,15,1.5,15; stroke-dashoffset: 0; stroke: #bcbd22; stroke-width: 1.5"/>
    </g>
    <g id="text_40">
     <!-- RSC COS 0.01 0.1 -->
     <g transform="translate(582.327347 648.970187) scale(0.1 -0.1)">
      <use xlink:href="#DejaVuSans-52"/>
      <use xlink:href="#DejaVuSans-53" x="69.482422"/>
      <use xlink:href="#DejaVuSans-43" x="132.958984"/>
      <use xlink:href="#DejaVuSans-20" x="202.783203"/>
      <use xlink:href="#DejaVuSans-43" x="234.570312"/>
      <use xlink:href="#DejaVuSans-4f" x="304.394531"/>
      <use xlink:href="#DejaVuSans-53" x="383.105469"/>
      <use xlink:href="#DejaVuSans-20" x="446.582031"/>
      <use xlink:href="#DejaVuSans-30" x="478.369141"/>
      <use xlink:href="#DejaVuSans-2e" x="541.992188"/>
      <use xlink:href="#DejaVuSans-30" x="573.779297"/>
      <use xlink:href="#DejaVuSans-31" x="637.402344"/>
      <use xlink:href="#DejaVuSans-20" x="701.025391"/>
      <use xlink:href="#DejaVuSans-30" x="732.8125"/>
      <use xlink:href="#DejaVuSans-2e" x="796.435547"/>
      <use xlink:href="#DejaVuSans-31" x="828.222656"/>
     </g>
    </g>
    <g id="line2d_77">
     <path d="M 554.327347 660.148312 
L 564.327347 660.148312 
L 574.327347 660.148312 
" style="fill: none; stroke-dasharray: 4.5,7.5,1.5,7.5; stroke-dashoffset: 0; stroke: #17becf; stroke-width: 1.5"/>
    </g>
    <g id="text_41">
     <!-- RSC COS 0.0001 0.01 -->
     <g transform="translate(582.327347 663.648312) scale(0.1 -0.1)">
      <use xlink:href="#DejaVuSans-52"/>
      <use xlink:href="#DejaVuSans-53" x="69.482422"/>
      <use xlink:href="#DejaVuSans-43" x="132.958984"/>
      <use xlink:href="#DejaVuSans-20" x="202.783203"/>
      <use xlink:href="#DejaVuSans-43" x="234.570312"/>
      <use xlink:href="#DejaVuSans-4f" x="304.394531"/>
      <use xlink:href="#DejaVuSans-53" x="383.105469"/>
      <use xlink:href="#DejaVuSans-20" x="446.582031"/>
      <use xlink:href="#DejaVuSans-30" x="478.369141"/>
      <use xlink:href="#DejaVuSans-2e" x="541.992188"/>
      <use xlink:href="#DejaVuSans-30" x="573.779297"/>
      <use xlink:href="#DejaVuSans-30" x="637.402344"/>
      <use xlink:href="#DejaVuSans-30" x="701.025391"/>
      <use xlink:href="#DejaVuSans-31" x="764.648438"/>
      <use xlink:href="#DejaVuSans-20" x="828.271484"/>
      <use xlink:href="#DejaVuSans-30" x="860.058594"/>
      <use xlink:href="#DejaVuSans-2e" x="923.681641"/>
      <use xlink:href="#DejaVuSans-30" x="955.46875"/>
      <use xlink:href="#DejaVuSans-31" x="1019.091797"/>
     </g>
    </g>
   </g>
  </g>
 </g>
 <defs>
  <clipPath id="pada4ab9e18">
   <rect x="50.6" y="26.88" width="655.583597" height="647.848"/>
  </clipPath>
 </defs>
</svg>
